<svg id="svg" version="1.1" xmlns="http://www.w3.org/2000/svg" xmlns:xlink="http://www.w3.org/1999/xlink" width="400" height="268.9075630252101" viewBox="0, 0, 400,268.9075630252101"><g id="svgg"><path id="path0" d="M338.534 142.300 C 339.315 142.499,339.307 142.506,338.265 142.543 C 337.673 142.564,336.644 142.833,335.978 143.141 C 334.848 143.664,334.226 143.706,326.564 143.772 C 319.001 143.837,311.774 144.054,308.810 144.307 C 308.144 144.363,307.410 144.419,307.179 144.431 C 306.948 144.442,306.517 144.677,306.221 144.953 C 305.718 145.421,304.885 145.465,293.460 145.616 C 286.738 145.705,280.784 145.891,280.231 146.028 C 279.653 146.171,279.287 146.175,279.372 146.037 C 279.568 145.720,279.523 145.726,278.057 146.226 C 277.365 146.462,276.799 146.740,276.799 146.844 C 276.799 146.949,276.527 147.043,276.194 147.053 C 275.861 147.063,270.928 147.155,265.232 147.258 C 251.817 147.500,250.443 147.556,249.591 147.898 C 249.199 148.055,248.805 148.111,248.716 148.021 C 248.627 147.932,248.554 148.013,248.554 148.202 C 248.554 148.390,248.384 148.479,248.177 148.400 C 247.969 148.320,247.725 148.330,247.633 148.421 C 247.340 148.714,246.486 148.736,233.759 148.771 C 226.880 148.789,221.553 148.893,221.923 149.001 C 222.509 149.171,222.439 149.218,221.385 149.362 C 219.397 149.634,218.566 149.849,218.471 150.117 C 218.422 150.256,218.263 150.370,218.119 150.370 C 217.975 150.370,217.948 150.219,218.059 150.034 C 218.185 149.824,218.082 149.842,217.785 150.084 C 217.399 150.397,215.797 150.481,209.327 150.530 C 197.977 150.616,190.234 150.941,189.574 151.360 C 189.390 151.477,189.119 151.579,188.971 151.588 C 188.823 151.597,188.730 151.744,188.765 151.914 C 188.810 152.142,186.631 152.236,180.560 152.268 C 169.922 152.325,165.964 152.435,163.900 152.729 C 162.869 152.876,162.291 152.871,162.387 152.716 C 162.574 152.413,161.719 152.652,160.086 153.358 C 159.021 153.819,157.932 153.881,148.654 154.009 C 143.014 154.088,138.218 154.206,137.996 154.273 C 137.774 154.340,137.142 154.451,136.591 154.521 C 136.040 154.591,135.341 154.780,135.038 154.942 C 134.736 155.104,134.380 155.170,134.247 155.088 C 134.115 155.006,133.958 155.087,133.898 155.267 C 133.814 155.519,131.105 155.587,122.241 155.560 C 115.889 155.541,111.056 155.622,111.500 155.740 C 112.277 155.947,112.265 155.958,111.163 156.021 C 109.672 156.106,109.735 156.088,108.871 156.666 C 108.189 157.122,107.397 157.169,99.591 157.221 C 88.801 157.293,81.198 157.559,80.312 157.896 C 79.832 158.078,79.623 158.068,79.623 157.862 C 79.623 157.661,79.498 157.671,79.232 157.892 C 79.016 158.071,78.714 158.139,78.559 158.044 C 78.405 157.948,78.278 158.005,78.278 158.171 C 78.278 158.336,78.139 158.385,77.969 158.280 C 77.798 158.175,77.518 158.281,77.347 158.516 C 77.073 158.890,75.835 158.949,67.281 159.000 C 56.120 159.065,56.622 158.957,56.420 161.332 C 56.354 162.108,56.403 162.744,56.529 162.744 C 56.655 162.744,56.759 162.912,56.759 163.118 C 56.759 163.324,57.040 163.563,57.385 163.650 C 57.729 163.736,58.152 164.115,58.323 164.491 C 58.495 164.868,58.939 165.291,59.311 165.433 C 59.722 165.589,59.987 165.900,59.987 166.229 C 59.987 166.586,60.224 166.828,60.686 166.944 C 61.130 167.056,61.483 167.401,61.654 167.892 C 61.812 168.344,62.179 168.729,62.540 168.820 C 62.941 168.920,63.208 169.236,63.306 169.725 C 63.396 170.176,63.675 170.532,64.005 170.618 C 64.306 170.697,64.663 171.051,64.797 171.404 C 65.049 172.066,65.905 172.940,65.905 172.535 C 65.905 172.411,66.194 172.729,66.548 173.242 C 66.902 173.756,67.125 174.286,67.044 174.420 C 66.964 174.553,67.022 174.586,67.174 174.492 C 67.326 174.398,67.678 174.639,67.955 175.028 C 68.233 175.417,68.838 176.111,69.300 176.570 C 69.762 177.029,70.281 177.677,70.453 178.009 C 70.625 178.342,70.940 178.615,71.154 178.615 C 71.368 178.615,71.620 178.922,71.714 179.297 C 71.808 179.672,72.234 180.159,72.661 180.379 C 73.114 180.614,73.436 180.999,73.436 181.306 C 73.436 181.648,73.681 181.894,74.135 182.008 C 74.576 182.118,74.932 182.464,75.099 182.943 C 75.245 183.362,75.596 183.777,75.880 183.867 C 76.163 183.957,76.395 184.160,76.395 184.317 C 76.395 184.677,77.450 185.609,77.857 185.609 C 78.024 185.609,78.298 185.972,78.465 186.416 C 78.663 186.940,78.957 187.223,79.305 187.223 C 79.661 187.223,79.937 187.501,80.129 188.053 C 80.289 188.510,80.640 188.942,80.910 189.012 C 81.181 189.083,81.532 189.486,81.691 189.907 C 81.877 190.399,82.209 190.706,82.618 190.764 C 82.971 190.814,83.255 191.037,83.255 191.265 C 83.255 192.467,85.316 193.812,87.213 193.847 C 88.601 193.874,89.038 193.793,89.038 193.511 C 89.038 193.307,89.190 193.171,89.375 193.208 C 89.560 193.245,89.683 193.132,89.650 192.957 C 89.573 192.557,91.585 192.334,94.849 192.380 C 96.195 192.400,97.414 192.343,97.557 192.254 C 97.701 192.165,98.163 192.030,98.585 191.954 C 99.262 191.831,99.623 191.545,99.861 190.942 C 99.901 190.842,101.798 190.721,104.078 190.673 C 108.112 190.587,108.244 190.566,108.971 189.888 C 109.668 189.236,109.945 189.179,113.174 189.015 C 116.590 188.842,118.084 188.481,118.088 187.828 C 118.089 187.643,118.181 187.478,118.292 187.461 C 118.545 187.423,121.324 187.301,124.143 187.204 C 126.021 187.139,126.390 187.042,127.048 186.440 C 127.713 185.832,128.046 185.747,129.873 185.723 C 133.412 185.676,135.263 185.362,135.448 184.777 C 135.654 184.128,136.116 184.033,139.744 183.894 C 142.293 183.796,143.289 183.689,143.914 183.445 C 143.988 183.417,144.150 183.411,144.273 183.432 C 144.397 183.454,144.562 183.226,144.641 182.926 C 144.770 182.434,145.022 182.375,147.241 182.326 C 148.592 182.296,150.061 182.246,150.504 182.215 C 150.948 182.184,151.579 182.148,151.906 182.135 C 152.233 182.122,152.736 181.859,153.023 181.551 C 153.711 180.812,154.985 180.550,158.132 180.500 C 161.465 180.447,162.086 180.366,162.004 179.994 C 161.967 179.827,162.028 179.718,162.139 179.750 C 162.249 179.783,162.648 179.604,163.025 179.352 C 163.513 179.026,164.209 178.904,165.446 178.931 C 167.916 178.983,170.906 178.630,171.142 178.259 C 171.253 178.085,171.345 178.048,171.348 178.177 C 171.350 178.306,171.532 178.262,171.752 178.079 C 171.973 177.896,172.096 177.655,172.026 177.542 C 171.957 177.429,173.622 177.284,175.728 177.219 C 179.459 177.103,180.484 176.882,181.170 176.047 C 181.343 175.837,182.727 175.659,185.047 175.550 C 187.034 175.456,188.817 175.246,189.015 175.081 C 189.213 174.917,189.375 174.874,189.375 174.987 C 189.375 175.099,189.616 174.883,189.912 174.507 C 190.427 173.853,190.576 173.823,193.476 173.787 C 197.667 173.736,198.593 173.580,199.213 172.815 C 199.446 172.528,199.546 172.475,199.436 172.697 C 199.278 173.014,199.346 173.004,199.752 172.651 C 200.145 172.310,200.786 172.205,202.434 172.213 C 205.591 172.229,207.867 171.918,208.049 171.445 C 208.132 171.227,208.326 171.126,208.478 171.220 C 208.631 171.315,208.723 171.231,208.682 171.035 C 208.624 170.759,209.481 170.642,212.526 170.513 C 216.433 170.348,217.619 170.071,217.619 169.325 C 217.619 169.019,218.028 168.927,219.435 168.913 C 223.688 168.872,226.287 168.572,226.453 168.103 C 226.796 167.133,229.441 166.785,235.029 166.974 C 235.209 166.980,235.426 166.768,235.510 166.503 C 235.735 165.793,236.323 165.631,239.005 165.541 C 243.249 165.398,244.328 165.202,244.878 164.473 C 245.347 163.852,245.514 163.820,248.294 163.820 C 251.788 163.820,253.947 163.425,254.122 162.756 C 254.228 162.349,254.779 162.261,258.326 162.083 C 263.597 161.818,263.339 161.837,263.224 161.722 C 262.578 161.076,264.481 160.468,267.376 160.395 C 269.082 160.352,270.901 160.237,271.419 160.139 C 271.937 160.041,272.481 159.952,272.629 159.940 C 272.777 159.929,272.898 159.678,272.898 159.382 C 272.898 158.881,273.098 158.841,275.857 158.789 C 277.485 158.759,279.240 158.648,279.758 158.543 C 280.276 158.439,280.838 158.325,281.008 158.290 C 281.177 158.255,281.571 157.972,281.882 157.661 C 282.383 157.160,282.795 157.089,285.474 157.045 C 289.602 156.977,289.608 156.977,290.046 156.614 C 290.259 156.437,290.517 156.377,290.620 156.480 C 290.724 156.583,290.878 156.401,290.963 156.074 C 291.109 155.519,291.285 155.477,293.710 155.428 C 298.876 155.324,299.541 155.216,299.787 154.441 C 299.979 153.836,301.519 153.604,305.364 153.600 C 306.977 153.599,308.041 153.484,308.155 153.300 C 308.283 153.093,308.409 153.113,308.570 153.367 C 308.749 153.649,308.802 153.621,308.806 153.246 C 308.808 152.978,308.931 152.834,309.079 152.925 C 309.227 153.017,309.348 152.911,309.348 152.690 C 309.348 152.134,309.952 152.007,312.441 152.038 C 315.844 152.080,317.868 151.754,318.736 151.023 C 319.412 150.454,319.775 150.383,322.154 150.354 C 325.320 150.315,327.371 149.944,327.371 149.411 C 327.371 148.862,329.109 148.670,335.631 148.496 C 335.810 148.491,336.250 148.170,336.609 147.784 C 337.231 147.113,337.415 147.075,340.587 146.967 C 342.417 146.904,344.217 146.777,344.586 146.683 C 344.956 146.590,345.336 146.503,345.430 146.491 C 345.525 146.479,345.827 146.192,346.103 145.852 C 346.635 145.197,347.832 144.949,348.805 145.293 C 349.128 145.407,349.431 145.390,349.478 145.254 C 349.525 145.118,349.987 144.982,350.504 144.951 C 351.414 144.898,352.925 144.320,352.925 144.026 C 352.925 143.947,352.774 143.973,352.589 144.084 C 352.361 144.221,352.371 144.140,352.622 143.831 C 352.825 143.581,352.916 143.361,352.824 143.342 C 352.732 143.324,352.566 143.292,352.455 143.272 C 351.561 143.109,350.512 142.461,350.822 142.264 C 351.017 142.140,348.151 142.052,344.452 142.067 C 340.753 142.082,338.090 142.187,338.534 142.300 M341.563 142.485 C 341.306 142.552,340.822 142.555,340.487 142.490 C 340.153 142.426,340.363 142.371,340.955 142.368 C 341.547 142.365,341.821 142.417,341.563 142.485 M224.818 149.210 C 224.561 149.277,224.077 149.279,223.742 149.215 C 223.408 149.151,223.618 149.096,224.210 149.093 C 224.802 149.090,225.075 149.142,224.818 149.210 M114.257 155.935 C 113.998 156.003,113.574 156.003,113.315 155.935 C 113.056 155.868,113.268 155.812,113.786 155.812 C 114.304 155.812,114.516 155.868,114.257 155.935 " stroke="none" fill="#ec1c2c" fill-rule="evenodd"></path><path id="path1" d="M4.775 75.070 C 4.516 75.222,4.304 75.582,4.304 75.871 C 4.304 76.239,4.119 76.395,3.685 76.395 C 2.897 76.395,2.421 76.871,2.421 77.660 C 2.421 78.168,2.277 78.278,1.614 78.278 C 0.897 78.278,0.807 78.368,0.807 79.085 C 0.807 79.623,0.672 79.892,0.403 79.892 C 0.054 79.892,0.000 80.909,0.000 87.424 C 0.000 93.940,0.054 94.956,0.403 94.956 C 0.672 94.956,0.807 95.225,0.807 95.763 C 0.807 96.477,0.899 96.570,1.597 96.570 C 2.292 96.570,2.397 96.676,2.471 97.445 C 2.545 98.213,2.661 98.329,3.430 98.403 C 4.198 98.477,4.304 98.583,4.304 99.277 C 4.304 99.976,4.398 100.067,5.111 100.067 C 5.709 100.067,5.918 100.193,5.918 100.551 C 5.918 101.349,6.490 101.681,7.861 101.681 C 9.088 101.681,9.168 101.725,9.321 102.488 C 9.478 103.274,9.524 103.295,11.045 103.295 C 12.549 103.295,12.610 103.323,12.692 104.035 C 12.770 104.711,12.909 104.796,14.298 105.016 C 15.679 105.235,15.834 105.328,15.973 106.025 C 16.101 106.666,16.261 106.792,16.940 106.792 C 17.665 106.792,17.754 106.880,17.754 107.599 C 17.754 108.317,17.844 108.406,18.561 108.406 L 19.368 108.406 19.368 110.962 L 19.368 113.517 18.561 113.517 C 17.844 113.517,17.754 113.607,17.754 114.324 C 17.754 115.043,17.665 115.131,16.940 115.131 C 16.251 115.131,16.102 115.255,15.965 115.938 L 15.804 116.745 12.493 116.745 L 9.182 116.745 9.097 116.005 C 9.016 115.309,8.924 115.261,7.519 115.187 C 6.143 115.114,6.004 115.046,5.727 114.312 L 5.427 113.517 3.117 113.517 L 0.807 113.517 0.807 117.973 C 0.807 123.619,0.730 123.470,3.641 123.470 L 5.918 123.470 5.918 124.248 C 5.918 125.324,6.077 125.353,11.939 125.353 C 17.409 125.353,17.754 125.278,17.754 124.089 C 17.754 123.489,17.828 123.470,20.175 123.470 L 22.596 123.470 22.596 122.663 C 22.596 121.920,22.671 121.856,23.537 121.856 C 24.404 121.856,24.479 121.792,24.479 121.049 C 24.479 120.332,24.568 120.242,25.286 120.242 C 25.999 120.242,26.093 120.150,26.093 119.453 C 26.093 118.792,26.213 118.650,26.833 118.579 C 27.541 118.497,27.576 118.424,27.652 116.812 C 27.732 115.148,27.740 115.131,28.527 115.131 L 29.321 115.131 29.321 110.155 L 29.321 105.178 28.514 105.178 L 27.707 105.178 27.707 103.557 C 27.707 101.979,27.686 101.933,26.915 101.778 C 26.310 101.657,26.103 101.453,26.040 100.911 C 25.978 100.371,25.789 100.182,25.249 100.120 C 24.707 100.057,24.503 99.851,24.382 99.245 C 24.227 98.474,24.181 98.453,22.603 98.453 C 20.994 98.453,20.982 98.447,20.982 97.675 C 20.982 96.772,20.612 96.570,18.960 96.570 C 17.883 96.570,17.783 96.511,17.704 95.831 C 17.623 95.122,17.549 95.087,15.938 95.011 C 14.274 94.931,14.257 94.923,14.257 94.136 C 14.257 93.447,14.158 93.342,13.509 93.342 C 12.925 93.342,12.694 93.165,12.456 92.535 C 12.168 91.771,12.072 91.728,10.649 91.728 L 9.146 91.728 9.146 90.108 C 9.146 88.522,9.128 88.483,8.339 88.325 C 7.145 88.087,7.130 86.617,8.322 86.617 C 9.014 86.617,9.122 86.511,9.196 85.754 C 9.261 85.091,9.435 84.854,9.943 84.735 C 10.358 84.638,10.664 84.333,10.762 83.918 C 10.916 83.261,10.952 83.254,14.336 83.180 L 17.754 83.104 17.754 83.888 C 17.754 84.757,18.220 84.993,19.944 85.000 C 20.751 85.003,20.952 85.117,21.085 85.646 C 21.268 86.377,22.258 86.734,23.404 86.482 C 24.344 86.276,24.472 85.585,24.476 80.686 C 24.479 76.485,24.437 76.395,22.425 76.395 C 21.090 76.395,21.013 76.358,20.932 75.656 L 20.847 74.916 13.046 74.855 C 8.078 74.816,5.075 74.894,4.775 75.070 M242.406 75.552 C 241.811 76.108,241.185 76.376,240.165 76.511 C 238.579 76.722,238.063 77.031,238.063 77.773 C 238.063 78.171,237.863 78.278,237.122 78.278 C 236.255 78.278,236.180 78.342,236.180 79.085 C 236.180 79.771,236.077 79.892,235.494 79.892 C 234.564 79.892,233.221 80.620,233.221 81.124 C 233.221 81.350,232.867 81.658,232.434 81.809 C 231.626 82.091,231.069 83.128,231.069 84.353 C 231.069 84.824,230.896 84.988,230.330 85.053 C 229.630 85.133,229.585 85.222,229.510 86.668 C 229.434 88.107,229.386 88.203,228.703 88.282 C 227.978 88.366,227.976 88.372,227.898 90.854 L 227.821 93.342 227.053 93.342 C 225.983 93.342,225.958 93.487,225.958 99.783 C 225.958 106.981,226.073 107.857,227.065 108.231 C 227.762 108.494,227.824 108.638,227.897 110.142 C 227.972 111.694,228.010 111.773,228.716 111.854 C 229.430 111.936,229.455 111.994,229.455 113.535 C 229.455 115.129,229.456 115.131,230.262 115.131 C 230.980 115.131,231.069 115.221,231.069 115.938 C 231.069 116.655,231.159 116.745,231.876 116.745 C 232.583 116.745,232.683 116.840,232.683 117.509 C 232.683 118.472,234.493 120.242,235.478 120.242 C 236.005 120.242,236.162 120.397,236.230 120.982 C 236.310 121.681,236.399 121.726,237.845 121.802 C 239.284 121.877,239.380 121.925,239.459 122.609 C 239.539 123.300,239.623 123.339,241.193 123.415 C 242.762 123.490,242.850 123.531,242.994 124.251 C 243.199 125.276,243.907 125.353,253.178 125.353 C 261.168 125.353,261.877 125.251,262.544 124.005 C 262.784 123.556,263.108 123.470,264.569 123.470 L 266.308 123.470 266.308 121.799 C 266.308 120.324,266.390 120.063,267.004 119.573 C 267.894 118.863,268.420 115.767,268.036 113.501 L 267.787 112.038 265.434 111.960 L 263.080 111.882 263.080 112.700 C 263.080 113.512,263.071 113.517,261.587 113.517 C 260.169 113.517,260.079 113.558,259.812 114.324 C 259.539 115.106,259.478 115.131,257.826 115.131 C 255.719 115.131,254.741 115.470,254.741 116.200 C 254.741 116.691,254.569 116.745,252.993 116.745 C 251.434 116.745,251.244 116.688,251.244 116.217 C 251.244 115.423,250.421 115.131,248.186 115.131 C 246.185 115.131,246.168 115.125,246.084 114.391 C 246.013 113.772,245.854 113.638,245.109 113.566 C 244.554 113.513,243.937 113.185,243.466 112.692 C 243.052 112.258,242.534 111.903,242.316 111.903 C 242.097 111.903,241.575 111.246,241.155 110.443 C 240.734 109.640,240.178 108.927,239.919 108.859 C 239.612 108.779,239.416 108.419,239.360 107.831 C 239.287 107.070,239.156 106.913,238.534 106.842 L 237.794 106.756 237.794 103.950 C 237.794 101.113,237.427 100.067,236.432 100.067 C 235.787 100.067,236.295 98.345,236.987 98.183 C 237.632 98.033,237.663 97.932,237.737 95.716 L 237.814 93.406 238.611 93.246 C 239.389 93.091,239.408 93.047,239.408 91.466 L 239.408 89.845 240.350 89.845 C 241.212 89.845,241.291 89.779,241.291 89.056 C 241.291 88.395,241.411 88.253,242.031 88.182 C 242.612 88.115,242.789 87.938,242.856 87.357 C 242.933 86.688,243.043 86.617,244.017 86.617 C 245.358 86.617,246.133 86.220,246.133 85.532 C 246.133 85.072,246.321 85.003,247.571 85.003 C 249.200 85.003,250.598 84.424,250.845 83.646 C 251.239 82.403,256.355 83.092,256.355 84.388 C 256.355 84.807,257.326 84.996,259.498 85.000 C 261.405 85.003,261.431 85.013,261.515 85.743 L 261.601 86.483 264.829 86.483 L 268.056 86.483 268.056 82.448 L 268.056 78.413 267.182 78.329 C 266.423 78.255,266.308 78.145,266.308 77.486 C 266.308 76.628,265.830 76.405,263.972 76.399 C 263.102 76.396,262.810 76.279,262.684 75.880 C 262.375 74.906,261.167 74.781,252.039 74.781 L 243.231 74.781 242.406 75.552 M44.833 81.686 C 44.734 81.784,44.654 91.575,44.654 103.443 L 44.654 125.021 45.259 125.184 C 46.702 125.570,52.660 125.369,52.829 124.928 C 52.919 124.694,52.993 120.880,52.993 116.454 L 52.993 108.406 58.665 108.406 L 64.337 108.406 64.642 107.599 C 64.887 106.949,65.104 106.791,65.762 106.789 C 67.234 106.782,67.806 106.498,67.966 105.696 C 68.080 105.127,68.294 104.919,68.827 104.857 C 69.489 104.780,69.541 104.674,69.616 103.244 C 69.695 101.738,69.710 101.712,70.558 101.630 L 71.419 101.547 71.491 95.419 C 71.569 88.866,71.466 88.231,70.334 88.231 C 69.776 88.231,69.670 88.103,69.670 87.424 C 69.670 86.707,69.581 86.617,68.863 86.617 C 68.146 86.617,68.056 86.528,68.056 85.810 C 68.056 85.093,67.967 85.003,67.249 85.003 C 66.539 85.003,66.443 84.910,66.443 84.225 C 66.443 83.305,66.079 83.120,64.269 83.120 C 63.133 83.120,62.946 83.046,62.946 82.592 C 62.946 82.301,62.711 81.938,62.425 81.785 C 61.848 81.476,45.137 81.382,44.833 81.686 M98.924 81.689 C 98.639 81.765,98.453 82.073,98.453 82.468 C 98.453 83.070,98.351 83.120,97.130 83.120 C 95.320 83.120,94.956 83.305,94.956 84.225 C 94.956 84.997,94.943 85.003,93.342 85.003 C 91.736 85.003,91.728 85.007,91.728 85.793 C 91.728 86.488,91.623 86.593,90.854 86.668 C 90.130 86.737,89.965 86.877,89.896 87.479 C 89.842 87.948,89.603 88.271,89.223 88.389 C 88.403 88.645,88.240 88.985,88.235 90.451 C 88.231 91.690,88.207 91.728,87.424 91.728 C 86.618 91.728,86.617 91.730,86.617 93.324 C 86.617 94.866,86.592 94.923,85.878 95.006 L 85.138 95.091 85.067 103.340 L 84.996 111.590 85.807 111.768 C 86.597 111.941,86.617 111.986,86.617 113.539 C 86.617 115.129,86.619 115.131,87.424 115.131 L 88.231 115.131 88.231 116.752 C 88.231 118.331,88.252 118.377,89.023 118.531 C 89.629 118.652,89.835 118.857,89.898 119.398 C 89.965 119.981,90.136 120.123,90.854 120.192 C 91.623 120.266,91.728 120.372,91.728 121.066 C 91.728 121.852,91.736 121.856,93.342 121.856 L 94.956 121.856 94.956 122.663 L 94.956 123.470 96.705 123.470 C 98.452 123.470,98.453 123.470,98.453 124.246 C 98.453 125.318,98.641 125.345,106.168 125.349 C 113.114 125.353,113.517 125.279,113.517 123.989 C 113.517 123.534,113.716 123.470,115.131 123.470 C 116.739 123.470,116.745 123.467,116.745 122.677 C 116.745 121.899,116.777 121.881,118.292 121.802 C 119.747 121.726,119.844 121.679,119.922 120.998 C 119.991 120.402,120.158 120.259,120.864 120.191 C 121.610 120.118,121.732 119.996,121.805 119.250 C 121.873 118.544,122.016 118.377,122.612 118.308 C 123.293 118.230,123.340 118.133,123.416 116.678 C 123.495 115.163,123.513 115.131,124.290 115.131 C 125.081 115.131,125.084 115.125,125.084 113.517 C 125.084 111.916,125.090 111.903,125.862 111.903 C 126.971 111.903,126.970 111.904,126.935 103.071 C 126.898 93.858,126.859 93.511,125.823 93.392 C 125.204 93.320,125.084 93.178,125.084 92.517 C 125.084 91.820,124.990 91.728,124.277 91.728 C 123.479 91.728,123.470 91.712,123.470 90.258 C 123.470 88.560,123.124 88.231,121.336 88.231 C 120.300 88.231,120.242 88.189,120.242 87.424 C 120.242 86.681,120.167 86.617,119.301 86.617 C 118.434 86.617,118.359 86.553,118.359 85.810 C 118.359 85.093,118.269 85.003,117.552 85.003 C 116.841 85.003,116.745 84.910,116.745 84.225 C 116.745 83.243,116.417 83.120,113.782 83.120 C 111.678 83.120,111.670 83.118,111.585 82.381 L 111.500 81.641 105.447 81.602 C 102.118 81.581,99.183 81.620,98.924 81.689 M142.367 81.682 C 141.701 81.955,141.897 124.724,142.566 125.082 C 142.889 125.256,144.511 125.339,146.668 125.294 L 150.235 125.219 150.377 117.956 C 150.454 113.961,150.545 110.905,150.578 111.163 C 150.617 111.463,150.872 111.634,151.281 111.634 C 151.803 111.634,151.957 111.812,152.101 112.576 C 152.254 113.395,152.379 113.517,153.059 113.517 C 153.821 113.517,153.842 113.554,153.921 115.064 C 153.997 116.519,154.044 116.616,154.725 116.694 C 155.321 116.763,155.464 116.930,155.532 117.636 C 155.601 118.341,155.744 118.508,156.339 118.577 C 156.898 118.642,157.081 118.825,157.146 119.384 C 157.211 119.945,157.393 120.127,157.958 120.192 C 158.634 120.270,158.699 120.389,158.867 121.873 C 159.041 123.410,159.076 123.470,159.820 123.470 C 160.491 123.470,160.592 123.571,160.592 124.246 C 160.592 125.273,160.926 125.345,165.748 125.349 C 170.873 125.354,170.545 125.540,170.545 122.634 L 170.545 120.242 169.738 120.242 C 168.963 120.242,168.931 120.195,168.931 119.054 C 168.931 117.451,168.723 117.014,167.960 117.014 C 167.505 117.014,167.317 116.863,167.317 116.498 C 167.317 115.519,167.003 115.131,166.212 115.131 C 165.527 115.131,165.434 115.035,165.434 114.324 C 165.434 113.607,165.344 113.517,164.627 113.517 C 163.821 113.517,163.820 113.515,163.820 111.921 C 163.820 110.380,163.794 110.322,163.080 110.240 C 162.464 110.169,162.326 110.009,162.256 109.280 L 162.172 108.406 163.803 108.406 C 165.420 108.406,165.434 108.400,165.434 107.633 C 165.434 106.887,165.489 106.854,166.938 106.734 C 168.688 106.589,168.921 106.335,168.927 104.573 C 168.931 103.334,168.955 103.295,169.738 103.295 L 170.545 103.295 170.545 96.009 L 170.545 88.723 169.738 88.418 C 169.108 88.180,168.931 87.949,168.931 87.365 C 168.931 86.717,168.825 86.617,168.142 86.617 C 167.481 86.617,167.339 86.497,167.267 85.878 C 167.197 85.265,167.035 85.124,166.324 85.055 C 165.619 84.986,165.452 84.843,165.383 84.249 C 165.280 83.358,164.667 83.197,161.215 83.152 L 158.745 83.120 158.659 82.381 L 158.574 81.641 150.639 81.593 C 146.274 81.566,142.552 81.607,142.367 81.682 M184.182 81.677 C 184.079 81.781,183.995 83.661,183.995 85.855 L 183.995 89.845 187.357 89.845 L 190.720 89.845 190.720 107.321 C 190.720 124.323,190.734 124.804,191.240 125.075 C 191.793 125.370,197.914 125.466,198.633 125.190 C 199.015 125.043,199.059 123.229,199.059 107.443 L 199.059 89.859 203.295 89.785 L 207.532 89.711 207.532 85.900 C 207.532 83.804,207.431 81.988,207.308 81.865 C 207.037 81.594,184.449 81.411,184.182 81.677 M285.199 81.822 C 284.553 82.468,284.739 124.727,285.389 125.075 C 285.942 125.370,292.063 125.466,292.782 125.190 C 293.159 125.045,293.208 123.975,293.208 115.909 L 293.208 106.792 299.933 106.792 L 306.658 106.792 306.658 115.794 C 306.658 124.419,306.680 124.808,307.178 125.075 C 307.785 125.399,314.163 125.447,314.662 125.130 C 314.930 124.960,314.986 120.410,314.931 103.278 L 314.862 81.641 310.982 81.566 C 308.059 81.510,307.049 81.576,306.884 81.835 C 306.764 82.024,306.664 85.841,306.662 90.316 L 306.658 98.453 299.937 98.453 L 293.215 98.453 293.144 90.047 L 293.073 81.641 289.301 81.567 C 286.595 81.513,285.435 81.586,285.199 81.822 M332.123 81.686 C 331.682 82.126,331.925 125.019,332.369 125.190 C 332.958 125.416,353.708 125.343,354.539 125.113 L 355.212 124.926 355.286 121.003 C 355.376 116.249,356.333 116.754,347.209 116.749 L 340.282 116.745 340.282 111.773 L 340.282 106.801 347.747 106.729 L 355.212 106.658 355.287 103.362 L 355.363 100.067 347.823 100.067 L 340.282 100.067 340.282 94.956 L 340.282 89.845 347.814 89.845 L 355.346 89.845 355.346 85.954 C 355.346 82.383,355.304 82.040,354.826 81.785 C 354.247 81.475,332.429 81.380,332.123 81.686 M372.380 81.977 C 372.289 82.236,371.929 82.758,371.579 83.137 L 370.945 83.826 371.014 103.312 L 371.083 122.798 371.688 123.063 C 372.137 123.260,372.293 123.554,372.293 124.201 C 372.293 125.334,372.716 125.438,376.796 125.311 C 381.037 125.179,380.632 126.024,380.632 117.314 L 380.632 109.844 381.406 109.958 C 382.097 110.059,382.198 110.202,382.348 111.296 C 382.540 112.697,382.901 113.248,383.624 113.248 C 384.022 113.248,384.129 113.448,384.129 114.190 C 384.129 115.056,384.193 115.131,384.936 115.131 C 385.653 115.131,385.743 115.221,385.743 115.938 C 385.743 116.655,385.833 116.745,386.550 116.745 C 387.303 116.745,387.357 116.813,387.361 117.754 C 387.366 119.294,387.616 119.912,388.303 120.085 C 388.721 120.190,388.987 120.509,389.106 121.049 C 389.253 121.721,389.414 121.856,390.068 121.856 C 390.790 121.856,390.854 121.935,390.854 122.815 C 390.854 124.968,391.717 125.353,396.543 125.353 L 400.000 125.353 400.000 121.991 C 400.000 119.181,399.934 118.628,399.597 118.628 C 399.327 118.628,399.193 118.358,399.193 117.814 C 399.193 117.125,399.069 116.976,398.386 116.839 C 397.888 116.740,397.578 116.511,397.578 116.241 C 397.573 115.031,397.008 113.836,396.364 113.674 C 395.840 113.543,395.696 113.334,395.696 112.705 C 395.696 111.993,395.605 111.903,394.889 111.903 C 394.177 111.903,394.082 111.811,394.082 111.118 C 394.082 110.463,393.947 110.302,393.275 110.155 C 392.656 110.019,392.468 109.829,392.468 109.341 C 392.468 108.912,392.227 108.589,391.730 108.351 C 391.149 108.072,390.931 107.710,390.708 106.655 C 390.460 105.482,390.333 105.302,389.698 105.228 C 389.097 105.157,388.971 105.009,388.971 104.372 C 388.971 103.787,388.825 103.574,388.366 103.485 L 387.761 103.368 388.366 103.332 C 388.845 103.303,388.971 103.134,388.971 102.522 C 388.971 101.889,389.109 101.721,389.730 101.597 C 390.388 101.465,390.522 101.273,390.739 100.153 C 390.936 99.133,391.145 98.786,391.728 98.508 C 392.288 98.241,392.468 97.962,392.468 97.363 C 392.468 96.662,392.561 96.570,393.275 96.570 C 393.988 96.570,394.082 96.479,394.082 95.781 C 394.082 95.120,394.202 94.978,394.822 94.907 C 395.438 94.836,395.576 94.676,395.646 93.948 C 395.707 93.313,395.864 93.073,396.218 93.073 C 396.938 93.073,397.359 92.418,397.513 91.056 C 397.639 89.934,397.706 89.845,398.421 89.845 C 399.099 89.845,399.193 89.748,399.193 89.038 C 399.193 88.500,399.328 88.231,399.597 88.231 C 399.934 88.231,400.000 87.678,400.000 84.861 L 400.000 81.491 396.301 81.566 L 392.603 81.641 392.519 82.363 C 392.456 82.914,392.248 83.126,391.645 83.258 C 390.995 83.401,390.854 83.569,390.854 84.200 C 390.854 84.837,390.729 84.982,390.114 85.053 C 389.438 85.131,389.354 85.269,389.131 86.671 C 388.913 88.046,388.816 88.212,388.190 88.285 C 387.658 88.347,387.472 88.538,387.408 89.088 C 387.345 89.639,387.137 89.851,386.534 89.983 C 385.884 90.126,385.743 90.294,385.743 90.925 C 385.743 91.562,385.618 91.707,385.003 91.778 C 384.303 91.858,384.259 91.945,384.183 93.410 C 384.104 94.928,384.088 94.956,383.302 94.956 C 382.633 94.956,382.476 95.085,382.345 95.739 C 382.206 96.435,381.674 96.820,380.834 96.836 C 380.723 96.838,380.632 93.463,380.632 89.336 C 380.632 82.742,380.581 81.813,380.207 81.670 C 379.087 81.240,372.549 81.497,372.380 81.977 M56.490 90.616 C 56.490 91.454,57.389 91.728,60.141 91.728 C 61.201 91.728,61.303 91.789,61.381 92.468 C 61.448 93.049,61.625 93.226,62.206 93.293 L 62.946 93.378 62.946 95.916 L 62.946 98.453 62.139 98.453 C 61.421 98.453,61.332 98.543,61.332 99.260 L 61.332 100.067 57.162 100.067 L 52.993 100.067 52.993 94.956 L 52.993 89.845 54.741 89.845 C 56.486 89.845,56.490 89.847,56.490 90.616 M108.406 90.624 C 108.406 91.542,108.771 91.728,110.562 91.728 C 111.786 91.728,111.873 91.774,111.953 92.468 C 112.019 93.049,112.196 93.226,112.777 93.293 C 113.267 93.349,113.517 93.536,113.517 93.844 C 113.517 94.448,114.034 94.956,114.647 94.956 C 115.006 94.956,115.131 95.166,115.131 95.763 C 115.131 96.481,115.221 96.570,115.938 96.570 C 116.648 96.570,116.745 96.664,116.745 97.344 C 116.745 98.908,117.053 99.750,117.684 99.908 C 119.074 100.257,119.075 106.792,117.684 106.792 C 116.956 106.792,116.745 107.244,116.745 108.798 C 116.745 109.866,116.684 109.965,115.938 110.114 C 115.255 110.251,115.131 110.401,115.131 111.089 C 115.131 111.814,115.043 111.903,114.324 111.903 C 113.607 111.903,113.517 111.993,113.517 112.710 C 113.517 113.427,113.427 113.517,112.710 113.517 C 111.993 113.517,111.903 113.607,111.903 114.324 L 111.903 115.131 109.868 115.131 C 107.616 115.131,106.792 115.422,106.792 116.217 C 106.792 116.688,106.602 116.745,105.044 116.745 L 103.295 116.745 103.295 115.938 C 103.295 115.132,103.293 115.131,101.703 115.131 C 100.152 115.131,100.105 115.110,99.933 114.324 C 99.786 113.657,99.622 113.517,98.988 113.517 C 98.350 113.517,98.206 113.392,98.135 112.777 C 98.069 112.201,97.890 112.019,97.326 111.954 C 96.767 111.890,96.584 111.706,96.519 111.147 C 96.454 110.583,96.272 110.405,95.696 110.339 C 94.994 110.258,94.956 110.181,94.956 108.846 C 94.956 107.371,94.638 106.792,93.826 106.792 C 92.985 106.792,93.101 100.179,93.948 99.915 C 94.841 99.636,94.948 99.332,94.952 97.041 L 94.956 94.956 96.145 94.956 C 97.738 94.956,98.184 94.749,98.184 94.007 C 98.184 93.537,98.378 93.343,98.975 93.211 C 99.510 93.094,99.793 92.850,99.849 92.457 C 99.919 91.974,100.203 91.830,101.547 91.601 C 103.027 91.348,103.168 91.264,103.246 90.585 L 103.331 89.845 105.869 89.845 L 108.406 89.845 108.406 90.624 M153.917 90.720 L 154.001 91.594 157.297 91.669 L 160.592 91.745 160.592 92.544 C 160.592 93.252,160.683 93.342,161.399 93.342 L 162.206 93.342 162.206 95.880 L 162.206 98.418 161.466 98.503 C 160.766 98.583,160.722 98.670,160.646 100.134 L 160.565 101.681 158.543 101.681 C 156.304 101.681,155.481 101.973,155.481 102.767 C 155.481 103.255,155.286 103.295,152.925 103.295 L 150.370 103.295 150.370 96.570 L 150.370 89.845 152.101 89.845 L 153.833 89.845 153.917 90.720 " stroke="none" fill="#040404" fill-rule="evenodd"></path><path id="path2" d="M332.882 142.304 C 332.789 142.455,332.582 142.497,332.421 142.397 C 332.255 142.295,332.206 142.341,332.307 142.504 C 332.405 142.663,332.341 142.840,332.166 142.898 C 331.987 142.958,331.923 143.205,332.021 143.459 C 332.282 144.139,334.047 144.037,335.750 143.244 C 336.541 142.876,337.673 142.559,338.265 142.540 C 339.305 142.506,339.314 142.498,338.534 142.300 C 337.307 141.988,333.076 141.991,332.882 142.304 M350.822 142.264 C 350.512 142.461,351.561 143.109,352.455 143.272 C 352.566 143.292,352.732 143.324,352.824 143.342 C 352.916 143.361,352.825 143.581,352.622 143.831 C 352.371 144.140,352.361 144.221,352.589 144.084 C 352.774 143.973,352.925 143.947,352.925 144.026 C 352.925 144.212,351.391 145.006,351.118 144.961 C 350.444 144.850,349.428 145.029,349.428 145.259 C 349.428 145.550,352.139 145.623,353.127 145.358 C 353.899 145.152,354.050 142.480,353.307 142.194 C 352.696 141.960,351.238 142.001,350.822 142.264 M340.487 142.490 C 340.822 142.555,341.306 142.552,341.563 142.485 C 341.821 142.417,341.547 142.365,340.955 142.368 C 340.363 142.371,340.153 142.426,340.487 142.490 M304.584 143.909 C 302.876 144.103,302.085 144.499,302.085 145.157 C 302.085 145.797,305.463 145.659,306.182 144.990 C 306.499 144.694,306.948 144.442,307.179 144.431 C 307.410 144.419,308.144 144.363,308.810 144.307 C 309.475 144.251,312.375 144.135,315.252 144.050 C 318.130 143.965,320.541 143.839,320.610 143.770 C 320.807 143.573,306.444 143.697,304.584 143.909 M346.815 145.283 C 346.502 145.399,346.129 145.704,345.985 145.961 C 345.672 146.520,345.333 146.613,342.703 146.862 L 340.686 147.053 343.452 147.097 C 346.347 147.144,347.936 146.762,348.250 145.944 C 348.338 145.715,348.599 145.528,348.829 145.528 C 349.513 145.528,349.046 145.266,348.182 145.166 C 347.743 145.115,347.128 145.168,346.815 145.283 M273.481 145.707 C 272.633 146.555,273.329 147.169,275.050 147.093 C 276.012 147.050,276.799 146.934,276.799 146.835 C 276.799 146.689,279.049 145.797,279.418 145.797 C 279.475 145.797,279.434 145.937,279.329 146.107 C 279.204 146.309,279.256 146.345,279.474 146.210 C 279.659 146.095,280.979 145.913,282.407 145.804 C 284.607 145.636,284.139 145.600,279.332 145.567 C 276.213 145.546,273.580 145.609,273.481 145.707 M287.092 145.721 C 287.501 145.783,288.106 145.781,288.437 145.717 C 288.768 145.653,288.433 145.603,287.693 145.605 C 286.954 145.607,286.683 145.659,287.092 145.721 M337.932 147.067 C 337.453 147.127,336.893 147.417,336.686 147.712 C 336.480 148.006,335.963 148.352,335.539 148.479 C 334.901 148.670,335.048 148.714,336.395 148.733 C 338.077 148.757,338.668 148.473,338.668 147.642 C 338.668 147.300,338.939 147.146,339.677 147.069 L 340.686 146.963 339.744 146.961 C 339.227 146.960,338.411 147.008,337.932 147.067 M244.599 147.883 C 243.834 148.826,244.290 149.139,245.902 148.777 C 246.531 148.636,247.135 148.575,247.243 148.643 C 247.352 148.710,247.514 148.647,247.603 148.503 C 247.692 148.359,247.942 148.310,248.159 148.393 C 248.379 148.477,248.554 148.393,248.554 148.202 C 248.554 148.013,248.630 147.935,248.723 148.028 C 248.816 148.121,249.270 148.046,249.732 147.863 C 250.259 147.653,252.376 147.498,255.414 147.447 C 258.077 147.402,260.306 147.315,260.368 147.254 C 260.429 147.192,257.040 147.144,252.836 147.147 L 245.192 147.152 244.599 147.883 M262.744 147.336 C 263.225 147.396,264.011 147.396,264.492 147.336 C 264.973 147.277,264.580 147.228,263.618 147.228 C 262.656 147.228,262.263 147.277,262.744 147.336 M333.224 148.677 C 333.559 148.741,334.043 148.739,334.300 148.672 C 334.558 148.604,334.284 148.552,333.692 148.555 C 333.100 148.558,332.890 148.613,333.224 148.677 M215.602 148.951 C 214.817 149.143,214.391 149.560,214.391 150.134 C 214.391 150.837,216.917 150.863,217.712 150.168 C 218.008 149.909,218.161 149.849,218.053 150.034 C 217.945 150.219,217.975 150.370,218.119 150.370 C 218.263 150.370,218.422 150.256,218.471 150.117 C 218.566 149.849,219.397 149.634,221.385 149.362 C 222.436 149.218,222.507 149.171,221.923 149.003 C 221.168 148.786,216.432 148.746,215.602 148.951 M327.707 148.934 C 327.522 149.009,327.371 149.234,327.371 149.435 C 327.371 149.645,326.885 149.909,326.227 150.056 C 325.112 150.306,325.131 150.313,326.974 150.341 C 328.938 150.371,330.061 149.935,330.061 149.144 C 330.061 148.759,328.489 148.618,327.707 148.934 M223.742 149.215 C 224.077 149.279,224.561 149.277,224.818 149.210 C 225.075 149.142,224.802 149.090,224.210 149.093 C 223.618 149.096,223.408 149.151,223.742 149.215 M189.240 150.516 C 189.092 150.573,188.308 150.654,187.497 150.696 C 186.097 150.770,186.020 150.811,185.966 151.526 C 185.908 152.271,185.923 152.279,187.357 152.221 C 188.181 152.187,188.784 152.042,188.754 151.883 C 188.726 151.730,188.823 151.597,188.971 151.588 C 189.119 151.579,189.399 151.471,189.593 151.348 C 190.011 151.083,191.522 150.988,198.500 150.787 C 201.373 150.704,203.784 150.576,203.857 150.503 C 204.012 150.348,189.642 150.361,189.240 150.516 M318.707 151.028 C 318.156 151.513,317.533 151.711,316.151 151.841 C 313.143 152.124,313.119 152.178,315.988 152.216 C 319.236 152.260,320.108 152.013,320.108 151.049 C 320.108 150.204,319.651 150.197,318.707 151.028 M309.684 152.162 C 309.499 152.237,309.348 152.476,309.348 152.695 C 309.348 152.913,309.227 153.017,309.079 152.925 C 308.931 152.834,308.800 152.978,308.788 153.246 C 308.775 153.547,308.714 153.600,308.628 153.385 C 308.532 153.145,308.387 153.121,308.162 153.308 C 307.982 153.457,306.451 153.618,304.758 153.666 C 302.125 153.739,302.282 153.756,305.851 153.783 C 310.570 153.817,311.329 153.693,311.449 152.864 C 311.495 152.546,311.737 152.232,311.987 152.166 C 312.237 152.100,311.896 152.042,311.231 152.036 C 310.565 152.031,309.869 152.087,309.684 152.162 M156.691 152.903 C 155.117 154.164,157.576 154.357,160.471 153.199 C 162.294 152.470,162.582 152.400,162.370 152.743 C 162.295 152.865,162.984 152.869,163.901 152.753 C 164.818 152.637,165.992 152.496,166.510 152.440 C 167.028 152.385,165.212 152.320,162.475 152.297 C 157.592 152.256,157.483 152.268,156.691 152.903 M170.212 152.443 C 170.546 152.507,171.030 152.505,171.288 152.438 C 171.545 152.370,171.271 152.318,170.679 152.321 C 170.087 152.324,169.877 152.379,170.212 152.443 M131.069 154.144 C 130.655 154.311,130.464 154.612,130.464 155.101 C 130.464 155.878,133.646 156.021,133.901 155.256 C 133.959 155.082,134.115 155.006,134.247 155.088 C 134.380 155.170,134.736 155.104,135.040 154.941 C 135.878 154.493,136.960 154.358,141.358 154.152 C 145.188 153.973,145.044 153.962,138.534 153.932 C 134.761 153.915,131.402 154.010,131.069 154.144 M147.209 154.060 C 147.616 154.121,148.282 154.121,148.689 154.060 C 149.095 153.998,148.763 153.947,147.949 153.947 C 147.135 153.947,146.802 153.998,147.209 154.060 M299.799 154.402 C 299.706 154.696,299.244 155.051,298.772 155.192 C 298.047 155.408,298.184 155.440,299.664 155.397 C 301.357 155.348,301.415 155.323,301.497 154.607 C 301.606 153.658,300.093 153.475,299.799 154.402 M296.503 155.397 C 296.762 155.465,297.186 155.465,297.445 155.397 C 297.703 155.330,297.492 155.274,296.974 155.274 C 296.456 155.274,296.244 155.330,296.503 155.397 M106.120 155.716 C 105.481 155.851,105.294 156.048,105.224 156.660 L 105.136 157.434 106.612 157.312 C 107.428 157.244,108.429 156.961,108.852 156.678 C 109.737 156.087,109.670 156.106,111.163 156.021 C 112.255 155.958,112.270 155.946,111.500 155.750 C 110.520 155.501,107.232 155.480,106.120 155.716 M290.971 156.046 C 290.890 156.357,290.708 156.540,290.566 156.452 C 290.425 156.365,290.160 156.474,289.977 156.694 C 289.690 157.041,289.847 157.095,291.148 157.095 C 292.636 157.095,293.208 156.726,293.208 155.768 C 293.208 155.177,291.130 155.436,290.971 156.046 M113.315 155.935 C 113.574 156.003,113.998 156.003,114.257 155.935 C 114.516 155.868,114.304 155.812,113.786 155.812 C 113.268 155.812,113.056 155.868,113.315 155.935 M76.157 157.356 C 74.264 157.530,73.436 157.956,73.436 158.760 C 73.436 159.212,77.133 159.007,77.310 158.546 C 77.405 158.300,77.648 158.181,77.877 158.269 C 78.098 158.354,78.278 158.299,78.278 158.146 C 78.278 157.994,78.405 157.948,78.559 158.044 C 78.714 158.139,79.016 158.071,79.232 157.892 C 79.498 157.671,79.623 157.661,79.623 157.862 C 79.623 158.069,79.833 158.078,80.320 157.893 C 80.703 157.747,83.757 157.560,87.107 157.478 C 90.458 157.395,93.251 157.275,93.315 157.211 C 93.500 157.027,78.358 157.154,76.157 157.356 M281.891 157.652 C 281.242 158.301,280.823 158.422,278.278 158.696 C 276.442 158.894,276.470 158.900,279.402 158.938 C 282.601 158.980,283.255 158.755,283.255 157.614 C 283.255 156.934,282.590 156.952,281.891 157.652 M272.992 158.969 C 272.969 159.048,272.939 159.282,272.923 159.490 C 272.890 159.948,272.480 160.047,269.536 160.306 L 267.249 160.507 270.231 160.549 C 271.871 160.573,273.302 160.503,273.411 160.393 C 273.520 160.284,273.812 160.194,274.061 160.192 C 274.319 160.190,274.548 159.936,274.596 159.600 C 274.647 159.246,274.915 158.965,275.269 158.895 C 275.593 158.831,275.222 158.790,274.445 158.802 C 273.668 158.815,273.015 158.890,272.992 158.969 M54.770 159.403 C 54.223 160.828,54.765 162.206,55.871 162.206 C 56.424 162.206,56.490 162.078,56.490 161.011 C 56.490 160.080,56.622 159.722,57.087 159.397 C 57.662 158.994,57.631 158.978,56.309 158.978 C 55.303 158.978,54.889 159.092,54.770 159.403 M265.434 160.513 C 265.767 160.577,266.311 160.577,266.644 160.513 C 266.977 160.449,266.705 160.396,266.039 160.396 C 265.373 160.396,265.101 160.449,265.434 160.513 M263.573 161.130 C 263.327 161.401,263.168 161.666,263.221 161.719 C 263.274 161.773,262.509 161.852,261.520 161.897 C 260.531 161.941,259.660 162.039,259.586 162.113 C 259.511 162.188,260.600 162.209,262.005 162.160 L 264.560 162.071 264.645 161.332 C 264.744 160.469,264.257 160.377,263.573 161.130 M254.131 162.722 C 254.040 163.070,253.613 163.325,252.822 163.506 C 251.735 163.755,251.806 163.772,253.781 163.730 C 255.866 163.686,255.919 163.669,256.112 162.946 C 256.301 162.234,256.270 162.206,255.287 162.206 C 254.507 162.206,254.234 162.327,254.131 162.722 M56.271 163.215 C 56.324 163.495,56.632 163.705,57.030 163.735 C 57.419 163.764,57.503 163.727,57.229 163.648 C 56.970 163.573,56.759 163.339,56.759 163.128 C 56.759 162.916,56.629 162.744,56.470 162.744 C 56.311 162.744,56.222 162.956,56.271 163.215 M244.878 164.473 C 244.498 164.977,244.052 165.161,242.933 165.275 C 240.757 165.497,240.933 165.703,243.299 165.703 C 245.466 165.703,246.950 165.153,247.309 164.218 C 247.593 163.477,245.461 163.700,244.878 164.473 M58.112 164.867 C 58.107 165.232,58.436 165.828,58.873 166.245 C 59.296 166.650,59.723 167.303,59.822 167.696 C 59.922 168.095,60.281 168.518,60.632 168.652 C 60.979 168.784,61.339 169.191,61.430 169.557 C 61.536 169.976,61.896 170.326,62.406 170.504 C 63.005 170.713,63.215 170.955,63.215 171.439 C 63.215 171.942,63.391 172.127,63.985 172.246 C 64.578 172.364,64.794 172.589,64.920 173.221 C 65.049 173.869,65.223 174.042,65.745 174.042 C 66.267 174.042,66.425 174.198,66.492 174.781 C 66.559 175.362,66.736 175.539,67.317 175.606 C 67.936 175.678,68.056 175.820,68.056 176.481 C 68.056 177.178,68.150 177.270,68.863 177.270 C 69.526 177.270,69.670 177.380,69.670 177.888 C 69.670 178.677,70.146 179.153,70.935 179.153 C 71.443 179.153,71.553 179.297,71.553 179.960 C 71.553 180.677,71.643 180.767,72.360 180.767 C 73.078 180.767,73.167 180.856,73.167 181.574 C 73.167 182.291,73.257 182.381,73.974 182.381 C 74.692 182.381,74.781 182.470,74.781 183.188 C 74.781 183.825,74.899 183.995,75.339 183.995 C 75.845 183.995,75.857 183.956,75.473 183.572 C 75.241 183.339,75.050 182.970,75.050 182.751 C 75.050 182.532,74.687 182.226,74.243 182.071 C 73.733 181.894,73.436 181.604,73.436 181.285 C 73.436 181.001,73.098 180.605,72.661 180.379 C 72.234 180.159,71.808 179.672,71.714 179.297 C 71.620 178.922,71.368 178.615,71.154 178.615 C 70.940 178.615,70.625 178.342,70.453 178.009 C 70.281 177.677,69.762 177.029,69.300 176.570 C 68.838 176.111,68.233 175.417,67.955 175.028 C 67.678 174.639,67.326 174.398,67.174 174.492 C 67.022 174.586,66.964 174.553,67.044 174.420 C 67.125 174.286,66.902 173.756,66.548 173.242 C 66.194 172.729,65.905 172.411,65.905 172.535 C 65.905 172.940,65.049 172.066,64.797 171.404 C 64.663 171.051,64.306 170.697,64.005 170.618 C 63.675 170.532,63.396 170.176,63.306 169.725 C 63.208 169.236,62.941 168.920,62.540 168.820 C 62.179 168.729,61.812 168.344,61.654 167.892 C 61.483 167.401,61.130 167.056,60.686 166.944 C 60.224 166.828,59.987 166.586,59.987 166.229 C 59.987 165.906,59.726 165.590,59.336 165.442 C 58.978 165.306,58.558 164.976,58.402 164.709 C 58.148 164.272,58.119 164.287,58.112 164.867 M236.373 165.773 C 235.985 165.902,235.597 166.228,235.512 166.497 C 235.427 166.765,235.209 166.980,235.029 166.974 C 229.441 166.785,226.796 167.133,226.453 168.103 C 226.403 168.245,226.014 168.423,225.589 168.500 C 224.349 168.722,224.424 168.931,225.745 168.931 C 227.732 168.931,228.666 168.648,228.984 167.951 C 229.267 167.329,229.344 167.317,233.013 167.317 C 236.893 167.317,237.794 167.116,237.794 166.250 C 237.794 165.937,238.028 165.693,238.399 165.617 C 238.734 165.549,238.574 165.504,238.042 165.516 C 237.513 165.528,236.762 165.643,236.373 165.773 M217.619 169.318 C 217.619 169.831,217.173 170.084,215.871 170.306 C 215.104 170.437,215.413 170.479,216.947 170.450 C 219.083 170.411,219.099 170.405,219.184 169.670 C 219.260 169.006,219.185 168.931,218.444 168.931 C 217.905 168.931,217.619 169.065,217.619 169.318 M208.711 170.746 C 208.693 170.857,208.696 171.048,208.717 171.170 C 208.738 171.292,208.639 171.320,208.497 171.232 C 208.354 171.143,208.134 171.256,208.008 171.482 C 207.847 171.768,207.051 171.967,205.369 172.141 L 202.959 172.390 206.361 172.330 C 209.879 172.269,210.435 172.108,210.706 171.074 C 210.826 170.614,210.706 170.545,209.793 170.545 C 209.215 170.545,208.728 170.636,208.711 170.746 M199.751 172.629 C 199.387 172.972,199.304 172.991,199.444 172.697 C 199.550 172.475,199.446 172.528,199.213 172.815 C 198.593 173.580,197.667 173.736,193.476 173.787 C 190.541 173.823,190.432 173.846,189.887 174.538 C 189.579 174.931,189.246 175.237,189.148 175.219 C 189.051 175.201,188.850 175.227,188.702 175.278 C 188.554 175.328,187.888 175.413,187.223 175.466 C 186.557 175.518,187.063 175.583,188.348 175.609 C 190.954 175.661,192.048 175.372,192.256 174.576 C 192.388 174.075,192.632 174.041,196.198 174.038 C 200.228 174.033,200.495 173.976,200.784 173.050 C 200.898 172.682,201.240 172.419,201.694 172.350 C 202.219 172.270,202.119 172.228,201.335 172.199 C 200.626 172.173,200.077 172.322,199.751 172.629 M181.142 176.035 C 180.988 176.436,180.001 176.898,178.884 177.093 C 178.514 177.157,179.119 177.193,180.229 177.172 C 182.219 177.136,182.247 177.125,182.331 176.395 C 182.425 175.582,181.432 175.280,181.142 176.035 M172.005 177.508 C 172.086 177.639,171.973 177.896,171.752 178.079 C 171.532 178.262,171.350 178.306,171.348 178.177 C 171.345 178.048,171.250 178.089,171.136 178.268 C 171.020 178.451,169.988 178.671,168.787 178.770 C 165.768 179.018,165.942 179.158,169.222 179.121 C 173.032 179.078,173.617 178.933,173.723 178.008 C 173.802 177.323,173.738 177.270,172.833 177.270 C 172.297 177.270,171.924 177.377,172.005 177.508 M162.951 179.413 C 162.581 179.704,162.191 179.855,162.085 179.749 C 161.979 179.643,161.932 179.730,161.982 179.943 C 162.053 180.250,161.621 180.351,159.919 180.428 C 156.745 180.572,156.829 180.721,160.099 180.745 C 163.414 180.770,163.820 180.668,163.820 179.813 C 163.820 179.286,163.981 179.168,164.829 179.080 L 165.837 178.974 164.730 178.929 C 163.984 178.898,163.404 179.056,162.951 179.413 M154.418 180.771 C 153.907 180.891,153.344 181.189,153.166 181.433 C 152.988 181.676,152.498 181.979,152.077 182.105 C 151.470 182.287,151.693 182.339,153.150 182.358 C 154.949 182.380,154.996 182.363,155.289 181.587 C 155.514 180.992,155.794 180.766,156.409 180.688 C 157.183 180.590,157.176 180.583,156.288 180.568 C 155.770 180.560,154.929 180.651,154.418 180.771 M149.899 182.297 C 150.158 182.365,150.582 182.365,150.841 182.297 C 151.100 182.229,150.888 182.174,150.370 182.174 C 149.852 182.174,149.640 182.229,149.899 182.297 M144.641 182.926 C 144.562 183.226,144.397 183.454,144.273 183.432 C 144.150 183.411,143.988 183.416,143.914 183.445 C 143.840 183.473,143.484 183.551,143.123 183.617 C 141.834 183.854,142.242 183.995,144.219 183.995 C 146.293 183.995,146.873 183.748,146.873 182.865 C 146.873 182.115,144.838 182.171,144.641 182.926 M135.729 184.417 C 135.496 184.650,135.306 184.936,135.306 185.052 C 135.306 185.169,134.549 185.386,133.625 185.534 L 131.944 185.803 134.064 185.840 C 136.260 185.879,137.727 185.352,138.095 184.393 C 138.312 183.829,136.296 183.850,135.729 184.417 M76.395 185.177 C 76.395 185.384,76.819 185.925,77.337 186.380 C 77.855 186.834,78.280 187.422,78.283 187.685 C 78.288 188.351,78.584 188.734,79.255 188.943 C 79.610 189.053,79.889 189.426,79.988 189.921 C 80.112 190.540,80.293 190.720,80.794 190.720 C 81.296 190.720,81.475 190.899,81.601 191.527 C 81.716 192.102,81.917 192.334,82.303 192.334 C 82.667 192.334,82.973 192.641,83.238 193.275 L 83.631 194.217 86.940 194.213 C 90.952 194.208,91.459 194.100,91.459 193.244 C 91.459 192.688,91.593 192.598,92.468 192.571 C 93.023 192.554,93.249 192.482,92.971 192.410 C 92.117 192.191,89.583 192.609,89.650 192.957 C 89.683 193.132,89.560 193.245,89.375 193.208 C 89.190 193.171,89.038 193.307,89.038 193.511 C 89.038 193.793,88.601 193.874,87.213 193.847 C 85.316 193.812,83.255 192.467,83.255 191.265 C 83.255 191.037,82.971 190.814,82.618 190.764 C 82.209 190.706,81.877 190.399,81.691 189.907 C 81.532 189.486,81.181 189.083,80.910 189.012 C 80.640 188.942,80.289 188.510,80.129 188.053 C 79.937 187.501,79.661 187.223,79.305 187.223 C 78.960 187.223,78.664 186.942,78.471 186.431 C 78.298 185.973,77.912 185.575,77.553 185.485 C 77.212 185.399,76.933 185.211,76.933 185.065 C 76.933 184.920,76.812 184.802,76.664 184.802 C 76.516 184.802,76.395 184.971,76.395 185.177 M127.108 186.426 C 126.404 187.026,126.004 187.130,124.143 187.196 C 120.913 187.311,121.345 187.492,124.851 187.492 C 128.019 187.492,128.581 187.324,128.581 186.381 C 128.581 186.113,128.838 185.863,129.186 185.794 C 129.519 185.727,129.371 185.686,128.856 185.702 C 128.273 185.721,127.615 185.994,127.108 186.426 M118.364 187.447 C 118.213 187.496,118.090 187.694,118.090 187.886 C 118.090 188.312,117.314 188.602,115.535 188.839 C 114.345 188.997,114.454 189.023,116.476 189.058 C 119.381 189.109,119.973 188.955,119.973 188.150 C 119.973 187.648,120.144 187.504,120.847 187.414 C 121.328 187.353,121.028 187.315,120.179 187.330 C 119.331 187.345,118.514 187.397,118.364 187.447 M108.843 189.947 L 108.070 190.720 109.045 190.720 C 109.949 190.720,110.020 190.661,110.020 189.913 C 110.020 188.938,109.848 188.943,108.843 189.947 M99.664 191.258 C 99.570 191.553,99.410 191.805,99.309 191.816 C 96.941 192.073,96.865 192.701,99.225 192.515 C 101.495 192.337,101.313 192.419,101.554 191.459 C 101.796 190.493,99.968 190.299,99.664 191.258 M95.831 192.519 C 96.089 192.587,96.513 192.587,96.772 192.519 C 97.031 192.451,96.819 192.396,96.301 192.396 C 95.783 192.396,95.572 192.451,95.831 192.519 " stroke="none" fill="#f01018" fill-rule="evenodd"></path><path id="path3" d="M332.882 142.304 C 332.789 142.455,332.582 142.497,332.421 142.397 C 332.255 142.295,332.206 142.341,332.307 142.504 C 332.405 142.663,332.341 142.840,332.166 142.898 C 331.987 142.958,331.923 143.205,332.021 143.459 C 332.282 144.139,334.047 144.037,335.750 143.244 C 336.541 142.876,337.673 142.559,338.265 142.540 C 339.305 142.506,339.314 142.498,338.534 142.300 C 337.307 141.988,333.076 141.991,332.882 142.304 M350.822 142.264 C 350.512 142.461,351.561 143.109,352.455 143.272 C 352.566 143.292,352.732 143.324,352.824 143.342 C 352.916 143.361,352.825 143.581,352.622 143.831 C 352.371 144.140,352.361 144.221,352.589 144.084 C 352.774 143.973,352.925 143.947,352.925 144.026 C 352.925 144.212,351.391 145.006,351.118 144.961 C 350.444 144.850,349.428 145.029,349.428 145.259 C 349.428 145.550,352.139 145.623,353.127 145.358 C 353.899 145.152,354.050 142.480,353.307 142.194 C 352.696 141.960,351.238 142.001,350.822 142.264 M340.487 142.490 C 340.822 142.555,341.306 142.552,341.563 142.485 C 341.821 142.417,341.547 142.365,340.955 142.368 C 340.363 142.371,340.153 142.426,340.487 142.490 M304.584 143.909 C 302.876 144.103,302.085 144.499,302.085 145.157 C 302.085 145.797,305.463 145.659,306.182 144.990 C 306.499 144.694,306.948 144.442,307.179 144.431 C 307.410 144.419,308.144 144.363,308.810 144.307 C 309.475 144.251,312.375 144.135,315.252 144.050 C 318.130 143.965,320.541 143.839,320.610 143.770 C 320.807 143.573,306.444 143.697,304.584 143.909 M346.815 145.283 C 346.502 145.399,346.129 145.704,345.985 145.961 C 345.672 146.520,345.333 146.613,342.703 146.862 L 340.686 147.053 343.452 147.097 C 346.347 147.144,347.936 146.762,348.250 145.944 C 348.338 145.715,348.599 145.528,348.829 145.528 C 349.513 145.528,349.046 145.266,348.182 145.166 C 347.743 145.115,347.128 145.168,346.815 145.283 M273.481 145.707 C 272.633 146.555,273.329 147.169,275.050 147.093 C 276.012 147.050,276.799 146.934,276.799 146.835 C 276.799 146.689,279.049 145.797,279.418 145.797 C 279.475 145.797,279.434 145.937,279.329 146.107 C 279.204 146.309,279.256 146.345,279.474 146.210 C 279.659 146.095,280.979 145.913,282.407 145.804 C 284.607 145.636,284.139 145.600,279.332 145.567 C 276.213 145.546,273.580 145.609,273.481 145.707 M287.092 145.721 C 287.501 145.783,288.106 145.781,288.437 145.717 C 288.768 145.653,288.433 145.603,287.693 145.605 C 286.954 145.607,286.683 145.659,287.092 145.721 M337.932 147.067 C 337.453 147.127,336.893 147.417,336.686 147.712 C 336.480 148.006,335.963 148.352,335.539 148.479 C 334.901 148.670,335.048 148.714,336.395 148.733 C 338.077 148.757,338.668 148.473,338.668 147.642 C 338.668 147.300,338.939 147.146,339.677 147.069 L 340.686 146.963 339.744 146.961 C 339.227 146.960,338.411 147.008,337.932 147.067 M244.599 147.883 C 243.834 148.826,244.290 149.139,245.902 148.777 C 246.531 148.636,247.135 148.575,247.243 148.643 C 247.352 148.710,247.514 148.647,247.603 148.503 C 247.692 148.359,247.942 148.310,248.159 148.393 C 248.379 148.477,248.554 148.393,248.554 148.202 C 248.554 148.013,248.630 147.935,248.723 148.028 C 248.816 148.121,249.270 148.046,249.732 147.863 C 250.259 147.653,252.376 147.498,255.414 147.447 C 258.077 147.402,260.306 147.315,260.368 147.254 C 260.429 147.192,257.040 147.144,252.836 147.147 L 245.192 147.152 244.599 147.883 M262.744 147.336 C 263.225 147.396,264.011 147.396,264.492 147.336 C 264.973 147.277,264.580 147.228,263.618 147.228 C 262.656 147.228,262.263 147.277,262.744 147.336 M333.224 148.677 C 333.559 148.741,334.043 148.739,334.300 148.672 C 334.558 148.604,334.284 148.552,333.692 148.555 C 333.100 148.558,332.890 148.613,333.224 148.677 M215.602 148.951 C 214.817 149.143,214.391 149.560,214.391 150.134 C 214.391 150.837,216.917 150.863,217.712 150.168 C 218.008 149.909,218.161 149.849,218.053 150.034 C 217.945 150.219,217.975 150.370,218.119 150.370 C 218.263 150.370,218.422 150.256,218.471 150.117 C 218.566 149.849,219.397 149.634,221.385 149.362 C 222.436 149.218,222.507 149.171,221.923 149.003 C 221.168 148.786,216.432 148.746,215.602 148.951 M327.707 148.934 C 327.522 149.009,327.371 149.234,327.371 149.435 C 327.371 149.645,326.885 149.909,326.227 150.056 C 325.112 150.306,325.131 150.313,326.974 150.341 C 328.938 150.371,330.061 149.935,330.061 149.144 C 330.061 148.759,328.489 148.618,327.707 148.934 M223.742 149.215 C 224.077 149.279,224.561 149.277,224.818 149.210 C 225.075 149.142,224.802 149.090,224.210 149.093 C 223.618 149.096,223.408 149.151,223.742 149.215 M189.240 150.516 C 189.092 150.573,188.308 150.654,187.497 150.696 C 186.097 150.770,186.020 150.811,185.966 151.526 C 185.908 152.271,185.923 152.279,187.357 152.221 C 188.181 152.187,188.784 152.042,188.754 151.883 C 188.726 151.730,188.823 151.597,188.971 151.588 C 189.119 151.579,189.399 151.471,189.593 151.348 C 190.011 151.083,191.522 150.988,198.500 150.787 C 201.373 150.704,203.784 150.576,203.857 150.503 C 204.012 150.348,189.642 150.361,189.240 150.516 M318.707 151.028 C 318.156 151.513,317.533 151.711,316.151 151.841 C 313.143 152.124,313.119 152.178,315.988 152.216 C 319.236 152.260,320.108 152.013,320.108 151.049 C 320.108 150.204,319.651 150.197,318.707 151.028 M309.684 152.162 C 309.499 152.237,309.348 152.476,309.348 152.695 C 309.348 152.913,309.227 153.017,309.079 152.925 C 308.931 152.834,308.800 152.978,308.788 153.246 C 308.775 153.547,308.714 153.600,308.628 153.385 C 308.532 153.145,308.387 153.121,308.162 153.308 C 307.982 153.457,306.451 153.618,304.758 153.666 C 302.125 153.739,302.282 153.756,305.851 153.783 C 310.570 153.817,311.329 153.693,311.449 152.864 C 311.495 152.546,311.737 152.232,311.987 152.166 C 312.237 152.100,311.896 152.042,311.231 152.036 C 310.565 152.031,309.869 152.087,309.684 152.162 M156.691 152.903 C 155.117 154.164,157.576 154.357,160.471 153.199 C 162.294 152.470,162.582 152.400,162.370 152.743 C 162.295 152.865,162.984 152.869,163.901 152.753 C 164.818 152.637,165.992 152.496,166.510 152.440 C 167.028 152.385,165.212 152.320,162.475 152.297 C 157.592 152.256,157.483 152.268,156.691 152.903 M170.212 152.443 C 170.546 152.507,171.030 152.505,171.288 152.438 C 171.545 152.370,171.271 152.318,170.679 152.321 C 170.087 152.324,169.877 152.379,170.212 152.443 M131.069 154.144 C 130.655 154.311,130.464 154.612,130.464 155.101 C 130.464 155.878,133.646 156.021,133.901 155.256 C 133.959 155.082,134.115 155.006,134.247 155.088 C 134.380 155.170,134.736 155.104,135.040 154.941 C 135.878 154.493,136.960 154.358,141.358 154.152 C 145.188 153.973,145.044 153.962,138.534 153.932 C 134.761 153.915,131.402 154.010,131.069 154.144 M147.209 154.060 C 147.616 154.121,148.282 154.121,148.689 154.060 C 149.095 153.998,148.763 153.947,147.949 153.947 C 147.135 153.947,146.802 153.998,147.209 154.060 M299.799 154.402 C 299.706 154.696,299.244 155.051,298.772 155.192 C 298.047 155.408,298.184 155.440,299.664 155.397 C 301.357 155.348,301.415 155.323,301.497 154.607 C 301.606 153.658,300.093 153.475,299.799 154.402 M296.503 155.397 C 296.762 155.465,297.186 155.465,297.445 155.397 C 297.703 155.330,297.492 155.274,296.974 155.274 C 296.456 155.274,296.244 155.330,296.503 155.397 M106.120 155.716 C 105.481 155.851,105.294 156.048,105.224 156.660 L 105.136 157.434 106.612 157.312 C 107.428 157.244,108.429 156.961,108.852 156.678 C 109.737 156.087,109.670 156.106,111.163 156.021 C 112.255 155.958,112.270 155.946,111.500 155.750 C 110.520 155.501,107.232 155.480,106.120 155.716 M290.971 156.046 C 290.890 156.357,290.708 156.540,290.566 156.452 C 290.425 156.365,290.160 156.474,289.977 156.694 C 289.690 157.041,289.847 157.095,291.148 157.095 C 292.636 157.095,293.208 156.726,293.208 155.768 C 293.208 155.177,291.130 155.436,290.971 156.046 M113.315 155.935 C 113.574 156.003,113.998 156.003,114.257 155.935 C 114.516 155.868,114.304 155.812,113.786 155.812 C 113.268 155.812,113.056 155.868,113.315 155.935 M76.157 157.356 C 74.264 157.530,73.436 157.956,73.436 158.760 C 73.436 159.212,77.133 159.007,77.310 158.546 C 77.405 158.300,77.648 158.181,77.877 158.269 C 78.098 158.354,78.278 158.299,78.278 158.146 C 78.278 157.994,78.405 157.948,78.559 158.044 C 78.714 158.139,79.016 158.071,79.232 157.892 C 79.498 157.671,79.623 157.661,79.623 157.862 C 79.623 158.069,79.833 158.078,80.320 157.893 C 80.703 157.747,83.757 157.560,87.107 157.478 C 90.458 157.395,93.251 157.275,93.315 157.211 C 93.500 157.027,78.358 157.154,76.157 157.356 M281.891 157.652 C 281.242 158.301,280.823 158.422,278.278 158.696 C 276.442 158.894,276.470 158.900,279.402 158.938 C 282.601 158.980,283.255 158.755,283.255 157.614 C 283.255 156.934,282.590 156.952,281.891 157.652 M272.992 158.969 C 272.969 159.048,272.939 159.282,272.923 159.490 C 272.890 159.948,272.480 160.047,269.536 160.306 L 267.249 160.507 270.231 160.549 C 271.871 160.573,273.302 160.503,273.411 160.393 C 273.520 160.284,273.812 160.194,274.061 160.192 C 274.319 160.190,274.548 159.936,274.596 159.600 C 274.647 159.246,274.915 158.965,275.269 158.895 C 275.593 158.831,275.222 158.790,274.445 158.802 C 273.668 158.815,273.015 158.890,272.992 158.969 M54.770 159.403 C 54.223 160.828,54.765 162.206,55.871 162.206 C 56.424 162.206,56.490 162.078,56.490 161.011 C 56.490 160.080,56.622 159.722,57.087 159.397 C 57.662 158.994,57.631 158.978,56.309 158.978 C 55.303 158.978,54.889 159.092,54.770 159.403 M265.434 160.513 C 265.767 160.577,266.311 160.577,266.644 160.513 C 266.977 160.449,266.705 160.396,266.039 160.396 C 265.373 160.396,265.101 160.449,265.434 160.513 M263.573 161.130 C 263.327 161.401,263.168 161.666,263.221 161.719 C 263.274 161.773,262.509 161.852,261.520 161.897 C 260.531 161.941,259.660 162.039,259.586 162.113 C 259.511 162.188,260.600 162.209,262.005 162.160 L 264.560 162.071 264.645 161.332 C 264.744 160.469,264.257 160.377,263.573 161.130 M254.131 162.722 C 254.040 163.070,253.613 163.325,252.822 163.506 C 251.735 163.755,251.806 163.772,253.781 163.730 C 255.866 163.686,255.919 163.669,256.112 162.946 C 256.301 162.234,256.270 162.206,255.287 162.206 C 254.507 162.206,254.234 162.327,254.131 162.722 M56.271 163.215 C 56.324 163.495,56.632 163.705,57.030 163.735 C 57.419 163.764,57.503 163.727,57.229 163.648 C 56.970 163.573,56.759 163.339,56.759 163.128 C 56.759 162.916,56.629 162.744,56.470 162.744 C 56.311 162.744,56.222 162.956,56.271 163.215 M244.878 164.473 C 244.498 164.977,244.052 165.161,242.933 165.275 C 240.757 165.497,240.933 165.703,243.299 165.703 C 245.466 165.703,246.950 165.153,247.309 164.218 C 247.593 163.477,245.461 163.700,244.878 164.473 M58.112 164.867 C 58.107 165.232,58.436 165.828,58.873 166.245 C 59.296 166.650,59.723 167.303,59.822 167.696 C 59.922 168.095,60.281 168.518,60.632 168.652 C 60.979 168.784,61.339 169.191,61.430 169.557 C 61.536 169.976,61.896 170.326,62.406 170.504 C 63.005 170.713,63.215 170.955,63.215 171.439 C 63.215 171.942,63.391 172.127,63.985 172.246 C 64.578 172.364,64.794 172.589,64.920 173.221 C 65.049 173.869,65.223 174.042,65.745 174.042 C 66.267 174.042,66.425 174.198,66.492 174.781 C 66.559 175.362,66.736 175.539,67.317 175.606 C 67.936 175.678,68.056 175.820,68.056 176.481 C 68.056 177.178,68.150 177.270,68.863 177.270 C 69.526 177.270,69.670 177.380,69.670 177.888 C 69.670 178.677,70.146 179.153,70.935 179.153 C 71.443 179.153,71.553 179.297,71.553 179.960 C 71.553 180.677,71.643 180.767,72.360 180.767 C 73.078 180.767,73.167 180.856,73.167 181.574 C 73.167 182.291,73.257 182.381,73.974 182.381 C 74.692 182.381,74.781 182.470,74.781 183.188 C 74.781 183.825,74.899 183.995,75.339 183.995 C 75.845 183.995,75.857 183.956,75.473 183.572 C 75.241 183.339,75.050 182.970,75.050 182.751 C 75.050 182.532,74.687 182.226,74.243 182.071 C 73.733 181.894,73.436 181.604,73.436 181.285 C 73.436 181.001,73.098 180.605,72.661 180.379 C 72.234 180.159,71.808 179.672,71.714 179.297 C 71.620 178.922,71.368 178.615,71.154 178.615 C 70.940 178.615,70.625 178.342,70.453 178.009 C 70.281 177.677,69.762 177.029,69.300 176.570 C 68.838 176.111,68.233 175.417,67.955 175.028 C 67.678 174.639,67.326 174.398,67.174 174.492 C 67.022 174.586,66.964 174.553,67.044 174.420 C 67.125 174.286,66.902 173.756,66.548 173.242 C 66.194 172.729,65.905 172.411,65.905 172.535 C 65.905 172.940,65.049 172.066,64.797 171.404 C 64.663 171.051,64.306 170.697,64.005 170.618 C 63.675 170.532,63.396 170.176,63.306 169.725 C 63.208 169.236,62.941 168.920,62.540 168.820 C 62.179 168.729,61.812 168.344,61.654 167.892 C 61.483 167.401,61.130 167.056,60.686 166.944 C 60.224 166.828,59.987 166.586,59.987 166.229 C 59.987 165.906,59.726 165.590,59.336 165.442 C 58.978 165.306,58.558 164.976,58.402 164.709 C 58.148 164.272,58.119 164.287,58.112 164.867 M236.373 165.773 C 235.985 165.902,235.597 166.228,235.512 166.497 C 235.427 166.765,235.209 166.980,235.029 166.974 C 229.441 166.785,226.796 167.133,226.453 168.103 C 226.403 168.245,226.014 168.423,225.589 168.500 C 224.349 168.722,224.424 168.931,225.745 168.931 C 227.732 168.931,228.666 168.648,228.984 167.951 C 229.267 167.329,229.344 167.317,233.013 167.317 C 236.893 167.317,237.794 167.116,237.794 166.250 C 237.794 165.937,238.028 165.693,238.399 165.617 C 238.734 165.549,238.574 165.504,238.042 165.516 C 237.513 165.528,236.762 165.643,236.373 165.773 M217.619 169.318 C 217.619 169.831,217.173 170.084,215.871 170.306 C 215.104 170.437,215.413 170.479,216.947 170.450 C 219.083 170.411,219.099 170.405,219.184 169.670 C 219.260 169.006,219.185 168.931,218.444 168.931 C 217.905 168.931,217.619 169.065,217.619 169.318 M208.711 170.746 C 208.693 170.857,208.696 171.048,208.717 171.170 C 208.738 171.292,208.639 171.320,208.497 171.232 C 208.354 171.143,208.134 171.256,208.008 171.482 C 207.847 171.768,207.051 171.967,205.369 172.141 L 202.959 172.390 206.361 172.330 C 209.879 172.269,210.435 172.108,210.706 171.074 C 210.826 170.614,210.706 170.545,209.793 170.545 C 209.215 170.545,208.728 170.636,208.711 170.746 M199.751 172.629 C 199.387 172.972,199.304 172.991,199.444 172.697 C 199.550 172.475,199.446 172.528,199.213 172.815 C 198.593 173.580,197.667 173.736,193.476 173.787 C 190.541 173.823,190.432 173.846,189.887 174.538 C 189.579 174.931,189.246 175.237,189.148 175.219 C 189.051 175.201,188.850 175.227,188.702 175.278 C 188.554 175.328,187.888 175.413,187.223 175.466 C 186.557 175.518,187.063 175.583,188.348 175.609 C 190.954 175.661,192.048 175.372,192.256 174.576 C 192.388 174.075,192.632 174.041,196.198 174.038 C 200.228 174.033,200.495 173.976,200.784 173.050 C 200.898 172.682,201.240 172.419,201.694 172.350 C 202.219 172.270,202.119 172.228,201.335 172.199 C 200.626 172.173,200.077 172.322,199.751 172.629 M181.142 176.035 C 180.988 176.436,180.001 176.898,178.884 177.093 C 178.514 177.157,179.119 177.193,180.229 177.172 C 182.219 177.136,182.247 177.125,182.331 176.395 C 182.425 175.582,181.432 175.280,181.142 176.035 M172.005 177.508 C 172.086 177.639,171.973 177.896,171.752 178.079 C 171.532 178.262,171.350 178.306,171.348 178.177 C 171.345 178.048,171.250 178.089,171.136 178.268 C 171.020 178.451,169.988 178.671,168.787 178.770 C 165.768 179.018,165.942 179.158,169.222 179.121 C 173.032 179.078,173.617 178.933,173.723 178.008 C 173.802 177.323,173.738 177.270,172.833 177.270 C 172.297 177.270,171.924 177.377,172.005 177.508 M162.951 179.413 C 162.581 179.704,162.191 179.855,162.085 179.749 C 161.979 179.643,161.932 179.730,161.982 179.943 C 162.053 180.250,161.621 180.351,159.919 180.428 C 156.745 180.572,156.829 180.721,160.099 180.745 C 163.414 180.770,163.820 180.668,163.820 179.813 C 163.820 179.286,163.981 179.168,164.829 179.080 L 165.837 178.974 164.730 178.929 C 163.984 178.898,163.404 179.056,162.951 179.413 M154.418 180.771 C 153.907 180.891,153.344 181.189,153.166 181.433 C 152.988 181.676,152.498 181.979,152.077 182.105 C 151.470 182.287,151.693 182.339,153.150 182.358 C 154.949 182.380,154.996 182.363,155.289 181.587 C 155.514 180.992,155.794 180.766,156.409 180.688 C 157.183 180.590,157.176 180.583,156.288 180.568 C 155.770 180.560,154.929 180.651,154.418 180.771 M149.899 182.297 C 150.158 182.365,150.582 182.365,150.841 182.297 C 151.100 182.229,150.888 182.174,150.370 182.174 C 149.852 182.174,149.640 182.229,149.899 182.297 M144.641 182.926 C 144.562 183.226,144.397 183.454,144.273 183.432 C 144.150 183.411,143.988 183.416,143.914 183.445 C 143.840 183.473,143.484 183.551,143.123 183.617 C 141.834 183.854,142.242 183.995,144.219 183.995 C 146.293 183.995,146.873 183.748,146.873 182.865 C 146.873 182.115,144.838 182.171,144.641 182.926 M135.729 184.417 C 135.496 184.650,135.306 184.936,135.306 185.052 C 135.306 185.169,134.549 185.386,133.625 185.534 L 131.944 185.803 134.064 185.840 C 136.260 185.879,137.727 185.352,138.095 184.393 C 138.312 183.829,136.296 183.850,135.729 184.417 M76.395 185.177 C 76.395 185.384,76.819 185.925,77.337 186.380 C 77.855 186.834,78.280 187.422,78.283 187.685 C 78.288 188.351,78.584 188.734,79.255 188.943 C 79.610 189.053,79.889 189.426,79.988 189.921 C 80.112 190.540,80.293 190.720,80.794 190.720 C 81.296 190.720,81.475 190.899,81.601 191.527 C 81.716 192.102,81.917 192.334,82.303 192.334 C 82.667 192.334,82.973 192.641,83.238 193.275 L 83.631 194.217 86.940 194.213 C 90.952 194.208,91.459 194.100,91.459 193.244 C 91.459 192.688,91.593 192.598,92.468 192.571 C 93.023 192.554,93.249 192.482,92.971 192.410 C 92.117 192.191,89.583 192.609,89.650 192.957 C 89.683 193.132,89.560 193.245,89.375 193.208 C 89.190 193.171,89.038 193.307,89.038 193.511 C 89.038 193.793,88.601 193.874,87.213 193.847 C 85.316 193.812,83.255 192.467,83.255 191.265 C 83.255 191.037,82.971 190.814,82.618 190.764 C 82.209 190.706,81.877 190.399,81.691 189.907 C 81.532 189.486,81.181 189.083,80.910 189.012 C 80.640 188.942,80.289 188.510,80.129 188.053 C 79.937 187.501,79.661 187.223,79.305 187.223 C 78.960 187.223,78.664 186.942,78.471 186.431 C 78.298 185.973,77.912 185.575,77.553 185.485 C 77.212 185.399,76.933 185.211,76.933 185.065 C 76.933 184.920,76.812 184.802,76.664 184.802 C 76.516 184.802,76.395 184.971,76.395 185.177 M127.108 186.426 C 126.404 187.026,126.004 187.130,124.143 187.196 C 120.913 187.311,121.345 187.492,124.851 187.492 C 128.019 187.492,128.581 187.324,128.581 186.381 C 128.581 186.113,128.838 185.863,129.186 185.794 C 129.519 185.727,129.371 185.686,128.856 185.702 C 128.273 185.721,127.615 185.994,127.108 186.426 M118.364 187.447 C 118.213 187.496,118.090 187.694,118.090 187.886 C 118.090 188.312,117.314 188.602,115.535 188.839 C 114.345 188.997,114.454 189.023,116.476 189.058 C 119.381 189.109,119.973 188.955,119.973 188.150 C 119.973 187.648,120.144 187.504,120.847 187.414 C 121.328 187.353,121.028 187.315,120.179 187.330 C 119.331 187.345,118.514 187.397,118.364 187.447 M108.843 189.947 L 108.070 190.720 109.045 190.720 C 109.949 190.720,110.020 190.661,110.020 189.913 C 110.020 188.938,109.848 188.943,108.843 189.947 M99.664 191.258 C 99.570 191.553,99.410 191.805,99.309 191.816 C 96.941 192.073,96.865 192.701,99.225 192.515 C 101.495 192.337,101.313 192.419,101.554 191.459 C 101.796 190.493,99.968 190.299,99.664 191.258 M95.831 192.519 C 96.089 192.587,96.513 192.587,96.772 192.519 C 97.031 192.451,96.819 192.396,96.301 192.396 C 95.783 192.396,95.572 192.451,95.831 192.519 " stroke="none" fill="#f01018" fill-rule="evenodd"></path><path id="path4" d="M332.882 142.304 C 332.789 142.455,332.582 142.497,332.421 142.397 C 332.255 142.295,332.206 142.341,332.307 142.504 C 332.405 142.663,332.341 142.840,332.166 142.898 C 331.987 142.958,331.923 143.205,332.021 143.459 C 332.282 144.139,334.047 144.037,335.750 143.244 C 336.541 142.876,337.673 142.559,338.265 142.540 C 339.305 142.506,339.314 142.498,338.534 142.300 C 337.307 141.988,333.076 141.991,332.882 142.304 M350.822 142.264 C 350.512 142.461,351.561 143.109,352.455 143.272 C 352.566 143.292,352.732 143.324,352.824 143.342 C 352.916 143.361,352.825 143.581,352.622 143.831 C 352.371 144.140,352.361 144.221,352.589 144.084 C 352.774 143.973,352.925 143.947,352.925 144.026 C 352.925 144.212,351.391 145.006,351.118 144.961 C 350.444 144.850,349.428 145.029,349.428 145.259 C 349.428 145.550,352.139 145.623,353.127 145.358 C 353.899 145.152,354.050 142.480,353.307 142.194 C 352.696 141.960,351.238 142.001,350.822 142.264 M340.487 142.490 C 340.822 142.555,341.306 142.552,341.563 142.485 C 341.821 142.417,341.547 142.365,340.955 142.368 C 340.363 142.371,340.153 142.426,340.487 142.490 M304.584 143.909 C 302.876 144.103,302.085 144.499,302.085 145.157 C 302.085 145.797,305.463 145.659,306.182 144.990 C 306.499 144.694,306.948 144.442,307.179 144.431 C 307.410 144.419,308.144 144.363,308.810 144.307 C 309.475 144.251,312.375 144.135,315.252 144.050 C 318.130 143.965,320.541 143.839,320.610 143.770 C 320.807 143.573,306.444 143.697,304.584 143.909 M346.815 145.283 C 346.502 145.399,346.129 145.704,345.985 145.961 C 345.672 146.520,345.333 146.613,342.703 146.862 L 340.686 147.053 343.452 147.097 C 346.347 147.144,347.936 146.762,348.250 145.944 C 348.338 145.715,348.599 145.528,348.829 145.528 C 349.513 145.528,349.046 145.266,348.182 145.166 C 347.743 145.115,347.128 145.168,346.815 145.283 M273.481 145.707 C 272.633 146.555,273.329 147.169,275.050 147.093 C 276.012 147.050,276.799 146.934,276.799 146.835 C 276.799 146.689,279.049 145.797,279.418 145.797 C 279.475 145.797,279.434 145.937,279.329 146.107 C 279.204 146.309,279.256 146.345,279.474 146.210 C 279.659 146.095,280.979 145.913,282.407 145.804 C 284.607 145.636,284.139 145.600,279.332 145.567 C 276.213 145.546,273.580 145.609,273.481 145.707 M287.092 145.721 C 287.501 145.783,288.106 145.781,288.437 145.717 C 288.768 145.653,288.433 145.603,287.693 145.605 C 286.954 145.607,286.683 145.659,287.092 145.721 M337.932 147.067 C 337.453 147.127,336.893 147.417,336.686 147.712 C 336.480 148.006,335.963 148.352,335.539 148.479 C 334.901 148.670,335.048 148.714,336.395 148.733 C 338.077 148.757,338.668 148.473,338.668 147.642 C 338.668 147.300,338.939 147.146,339.677 147.069 L 340.686 146.963 339.744 146.961 C 339.227 146.960,338.411 147.008,337.932 147.067 M244.599 147.883 C 243.834 148.826,244.290 149.139,245.902 148.777 C 246.531 148.636,247.135 148.575,247.243 148.643 C 247.352 148.710,247.514 148.647,247.603 148.503 C 247.692 148.359,247.942 148.310,248.159 148.393 C 248.379 148.477,248.554 148.393,248.554 148.202 C 248.554 148.013,248.630 147.935,248.723 148.028 C 248.816 148.121,249.270 148.046,249.732 147.863 C 250.259 147.653,252.376 147.498,255.414 147.447 C 258.077 147.402,260.306 147.315,260.368 147.254 C 260.429 147.192,257.040 147.144,252.836 147.147 L 245.192 147.152 244.599 147.883 M262.744 147.336 C 263.225 147.396,264.011 147.396,264.492 147.336 C 264.973 147.277,264.580 147.228,263.618 147.228 C 262.656 147.228,262.263 147.277,262.744 147.336 M333.224 148.677 C 333.559 148.741,334.043 148.739,334.300 148.672 C 334.558 148.604,334.284 148.552,333.692 148.555 C 333.100 148.558,332.890 148.613,333.224 148.677 M215.602 148.951 C 214.817 149.143,214.391 149.560,214.391 150.134 C 214.391 150.837,216.917 150.863,217.712 150.168 C 218.008 149.909,218.161 149.849,218.053 150.034 C 217.945 150.219,217.975 150.370,218.119 150.370 C 218.263 150.370,218.422 150.256,218.471 150.117 C 218.566 149.849,219.397 149.634,221.385 149.362 C 222.436 149.218,222.507 149.171,221.923 149.003 C 221.168 148.786,216.432 148.746,215.602 148.951 M327.707 148.934 C 327.522 149.009,327.371 149.234,327.371 149.435 C 327.371 149.645,326.885 149.909,326.227 150.056 C 325.112 150.306,325.131 150.313,326.974 150.341 C 328.938 150.371,330.061 149.935,330.061 149.144 C 330.061 148.759,328.489 148.618,327.707 148.934 M223.742 149.215 C 224.077 149.279,224.561 149.277,224.818 149.210 C 225.075 149.142,224.802 149.090,224.210 149.093 C 223.618 149.096,223.408 149.151,223.742 149.215 M189.240 150.516 C 189.092 150.573,188.308 150.654,187.497 150.696 C 186.097 150.770,186.020 150.811,185.966 151.526 C 185.908 152.271,185.923 152.279,187.357 152.221 C 188.181 152.187,188.784 152.042,188.754 151.883 C 188.726 151.730,188.823 151.597,188.971 151.588 C 189.119 151.579,189.399 151.471,189.593 151.348 C 190.011 151.083,191.522 150.988,198.500 150.787 C 201.373 150.704,203.784 150.576,203.857 150.503 C 204.012 150.348,189.642 150.361,189.240 150.516 M318.707 151.028 C 318.156 151.513,317.533 151.711,316.151 151.841 C 313.143 152.124,313.119 152.178,315.988 152.216 C 319.236 152.260,320.108 152.013,320.108 151.049 C 320.108 150.204,319.651 150.197,318.707 151.028 M309.684 152.162 C 309.499 152.237,309.348 152.476,309.348 152.695 C 309.348 152.913,309.227 153.017,309.079 152.925 C 308.931 152.834,308.800 152.978,308.788 153.246 C 308.775 153.547,308.714 153.600,308.628 153.385 C 308.532 153.145,308.387 153.121,308.162 153.308 C 307.982 153.457,306.451 153.618,304.758 153.666 C 302.125 153.739,302.282 153.756,305.851 153.783 C 310.570 153.817,311.329 153.693,311.449 152.864 C 311.495 152.546,311.737 152.232,311.987 152.166 C 312.237 152.100,311.896 152.042,311.231 152.036 C 310.565 152.031,309.869 152.087,309.684 152.162 M156.691 152.903 C 155.117 154.164,157.576 154.357,160.471 153.199 C 162.294 152.470,162.582 152.400,162.370 152.743 C 162.295 152.865,162.984 152.869,163.901 152.753 C 164.818 152.637,165.992 152.496,166.510 152.440 C 167.028 152.385,165.212 152.320,162.475 152.297 C 157.592 152.256,157.483 152.268,156.691 152.903 M170.212 152.443 C 170.546 152.507,171.030 152.505,171.288 152.438 C 171.545 152.370,171.271 152.318,170.679 152.321 C 170.087 152.324,169.877 152.379,170.212 152.443 M131.069 154.144 C 130.655 154.311,130.464 154.612,130.464 155.101 C 130.464 155.878,133.646 156.021,133.901 155.256 C 133.959 155.082,134.115 155.006,134.247 155.088 C 134.380 155.170,134.736 155.104,135.040 154.941 C 135.878 154.493,136.960 154.358,141.358 154.152 C 145.188 153.973,145.044 153.962,138.534 153.932 C 134.761 153.915,131.402 154.010,131.069 154.144 M147.209 154.060 C 147.616 154.121,148.282 154.121,148.689 154.060 C 149.095 153.998,148.763 153.947,147.949 153.947 C 147.135 153.947,146.802 153.998,147.209 154.060 M299.799 154.402 C 299.706 154.696,299.244 155.051,298.772 155.192 C 298.047 155.408,298.184 155.440,299.664 155.397 C 301.357 155.348,301.415 155.323,301.497 154.607 C 301.606 153.658,300.093 153.475,299.799 154.402 M296.503 155.397 C 296.762 155.465,297.186 155.465,297.445 155.397 C 297.703 155.330,297.492 155.274,296.974 155.274 C 296.456 155.274,296.244 155.330,296.503 155.397 M106.120 155.716 C 105.481 155.851,105.294 156.048,105.224 156.660 L 105.136 157.434 106.612 157.312 C 107.428 157.244,108.429 156.961,108.852 156.678 C 109.737 156.087,109.670 156.106,111.163 156.021 C 112.255 155.958,112.270 155.946,111.500 155.750 C 110.520 155.501,107.232 155.480,106.120 155.716 M290.971 156.046 C 290.890 156.357,290.708 156.540,290.566 156.452 C 290.425 156.365,290.160 156.474,289.977 156.694 C 289.690 157.041,289.847 157.095,291.148 157.095 C 292.636 157.095,293.208 156.726,293.208 155.768 C 293.208 155.177,291.130 155.436,290.971 156.046 M113.315 155.935 C 113.574 156.003,113.998 156.003,114.257 155.935 C 114.516 155.868,114.304 155.812,113.786 155.812 C 113.268 155.812,113.056 155.868,113.315 155.935 M76.157 157.356 C 74.264 157.530,73.436 157.956,73.436 158.760 C 73.436 159.212,77.133 159.007,77.310 158.546 C 77.405 158.300,77.648 158.181,77.877 158.269 C 78.098 158.354,78.278 158.299,78.278 158.146 C 78.278 157.994,78.405 157.948,78.559 158.044 C 78.714 158.139,79.016 158.071,79.232 157.892 C 79.498 157.671,79.623 157.661,79.623 157.862 C 79.623 158.069,79.833 158.078,80.320 157.893 C 80.703 157.747,83.757 157.560,87.107 157.478 C 90.458 157.395,93.251 157.275,93.315 157.211 C 93.500 157.027,78.358 157.154,76.157 157.356 M281.891 157.652 C 281.242 158.301,280.823 158.422,278.278 158.696 C 276.442 158.894,276.470 158.900,279.402 158.938 C 282.601 158.980,283.255 158.755,283.255 157.614 C 283.255 156.934,282.590 156.952,281.891 157.652 M272.992 158.969 C 272.969 159.048,272.939 159.282,272.923 159.490 C 272.890 159.948,272.480 160.047,269.536 160.306 L 267.249 160.507 270.231 160.549 C 271.871 160.573,273.302 160.503,273.411 160.393 C 273.520 160.284,273.812 160.194,274.061 160.192 C 274.319 160.190,274.548 159.936,274.596 159.600 C 274.647 159.246,274.915 158.965,275.269 158.895 C 275.593 158.831,275.222 158.790,274.445 158.802 C 273.668 158.815,273.015 158.890,272.992 158.969 M54.770 159.403 C 54.223 160.828,54.765 162.206,55.871 162.206 C 56.424 162.206,56.490 162.078,56.490 161.011 C 56.490 160.080,56.622 159.722,57.087 159.397 C 57.662 158.994,57.631 158.978,56.309 158.978 C 55.303 158.978,54.889 159.092,54.770 159.403 M265.434 160.513 C 265.767 160.577,266.311 160.577,266.644 160.513 C 266.977 160.449,266.705 160.396,266.039 160.396 C 265.373 160.396,265.101 160.449,265.434 160.513 M263.573 161.130 C 263.327 161.401,263.168 161.666,263.221 161.719 C 263.274 161.773,262.509 161.852,261.520 161.897 C 260.531 161.941,259.660 162.039,259.586 162.113 C 259.511 162.188,260.600 162.209,262.005 162.160 L 264.560 162.071 264.645 161.332 C 264.744 160.469,264.257 160.377,263.573 161.130 M254.131 162.722 C 254.040 163.070,253.613 163.325,252.822 163.506 C 251.735 163.755,251.806 163.772,253.781 163.730 C 255.866 163.686,255.919 163.669,256.112 162.946 C 256.301 162.234,256.270 162.206,255.287 162.206 C 254.507 162.206,254.234 162.327,254.131 162.722 M56.271 163.215 C 56.324 163.495,56.632 163.705,57.030 163.735 C 57.419 163.764,57.503 163.727,57.229 163.648 C 56.970 163.573,56.759 163.339,56.759 163.128 C 56.759 162.916,56.629 162.744,56.470 162.744 C 56.311 162.744,56.222 162.956,56.271 163.215 M244.878 164.473 C 244.498 164.977,244.052 165.161,242.933 165.275 C 240.757 165.497,240.933 165.703,243.299 165.703 C 245.466 165.703,246.950 165.153,247.309 164.218 C 247.593 163.477,245.461 163.700,244.878 164.473 M58.112 164.867 C 58.107 165.232,58.436 165.828,58.873 166.245 C 59.296 166.650,59.723 167.303,59.822 167.696 C 59.922 168.095,60.281 168.518,60.632 168.652 C 60.979 168.784,61.339 169.191,61.430 169.557 C 61.536 169.976,61.896 170.326,62.406 170.504 C 63.005 170.713,63.215 170.955,63.215 171.439 C 63.215 171.942,63.391 172.127,63.985 172.246 C 64.578 172.364,64.794 172.589,64.920 173.221 C 65.049 173.869,65.223 174.042,65.745 174.042 C 66.267 174.042,66.425 174.198,66.492 174.781 C 66.559 175.362,66.736 175.539,67.317 175.606 C 67.936 175.678,68.056 175.820,68.056 176.481 C 68.056 177.178,68.150 177.270,68.863 177.270 C 69.526 177.270,69.670 177.380,69.670 177.888 C 69.670 178.677,70.146 179.153,70.935 179.153 C 71.443 179.153,71.553 179.297,71.553 179.960 C 71.553 180.677,71.643 180.767,72.360 180.767 C 73.078 180.767,73.167 180.856,73.167 181.574 C 73.167 182.291,73.257 182.381,73.974 182.381 C 74.692 182.381,74.781 182.470,74.781 183.188 C 74.781 183.825,74.899 183.995,75.339 183.995 C 75.845 183.995,75.857 183.956,75.473 183.572 C 75.241 183.339,75.050 182.970,75.050 182.751 C 75.050 182.532,74.687 182.226,74.243 182.071 C 73.733 181.894,73.436 181.604,73.436 181.285 C 73.436 181.001,73.098 180.605,72.661 180.379 C 72.234 180.159,71.808 179.672,71.714 179.297 C 71.620 178.922,71.368 178.615,71.154 178.615 C 70.940 178.615,70.625 178.342,70.453 178.009 C 70.281 177.677,69.762 177.029,69.300 176.570 C 68.838 176.111,68.233 175.417,67.955 175.028 C 67.678 174.639,67.326 174.398,67.174 174.492 C 67.022 174.586,66.964 174.553,67.044 174.420 C 67.125 174.286,66.902 173.756,66.548 173.242 C 66.194 172.729,65.905 172.411,65.905 172.535 C 65.905 172.940,65.049 172.066,64.797 171.404 C 64.663 171.051,64.306 170.697,64.005 170.618 C 63.675 170.532,63.396 170.176,63.306 169.725 C 63.208 169.236,62.941 168.920,62.540 168.820 C 62.179 168.729,61.812 168.344,61.654 167.892 C 61.483 167.401,61.130 167.056,60.686 166.944 C 60.224 166.828,59.987 166.586,59.987 166.229 C 59.987 165.906,59.726 165.590,59.336 165.442 C 58.978 165.306,58.558 164.976,58.402 164.709 C 58.148 164.272,58.119 164.287,58.112 164.867 M236.373 165.773 C 235.985 165.902,235.597 166.228,235.512 166.497 C 235.427 166.765,235.209 166.980,235.029 166.974 C 229.441 166.785,226.796 167.133,226.453 168.103 C 226.403 168.245,226.014 168.423,225.589 168.500 C 224.349 168.722,224.424 168.931,225.745 168.931 C 227.732 168.931,228.666 168.648,228.984 167.951 C 229.267 167.329,229.344 167.317,233.013 167.317 C 236.893 167.317,237.794 167.116,237.794 166.250 C 237.794 165.937,238.028 165.693,238.399 165.617 C 238.734 165.549,238.574 165.504,238.042 165.516 C 237.513 165.528,236.762 165.643,236.373 165.773 M217.619 169.318 C 217.619 169.831,217.173 170.084,215.871 170.306 C 215.104 170.437,215.413 170.479,216.947 170.450 C 219.083 170.411,219.099 170.405,219.184 169.670 C 219.260 169.006,219.185 168.931,218.444 168.931 C 217.905 168.931,217.619 169.065,217.619 169.318 M208.711 170.746 C 208.693 170.857,208.696 171.048,208.717 171.170 C 208.738 171.292,208.639 171.320,208.497 171.232 C 208.354 171.143,208.134 171.256,208.008 171.482 C 207.847 171.768,207.051 171.967,205.369 172.141 L 202.959 172.390 206.361 172.330 C 209.879 172.269,210.435 172.108,210.706 171.074 C 210.826 170.614,210.706 170.545,209.793 170.545 C 209.215 170.545,208.728 170.636,208.711 170.746 M199.751 172.629 C 199.387 172.972,199.304 172.991,199.444 172.697 C 199.550 172.475,199.446 172.528,199.213 172.815 C 198.593 173.580,197.667 173.736,193.476 173.787 C 190.541 173.823,190.432 173.846,189.887 174.538 C 189.579 174.931,189.246 175.237,189.148 175.219 C 189.051 175.201,188.850 175.227,188.702 175.278 C 188.554 175.328,187.888 175.413,187.223 175.466 C 186.557 175.518,187.063 175.583,188.348 175.609 C 190.954 175.661,192.048 175.372,192.256 174.576 C 192.388 174.075,192.632 174.041,196.198 174.038 C 200.228 174.033,200.495 173.976,200.784 173.050 C 200.898 172.682,201.240 172.419,201.694 172.350 C 202.219 172.270,202.119 172.228,201.335 172.199 C 200.626 172.173,200.077 172.322,199.751 172.629 M181.142 176.035 C 180.988 176.436,180.001 176.898,178.884 177.093 C 178.514 177.157,179.119 177.193,180.229 177.172 C 182.219 177.136,182.247 177.125,182.331 176.395 C 182.425 175.582,181.432 175.280,181.142 176.035 M172.005 177.508 C 172.086 177.639,171.973 177.896,171.752 178.079 C 171.532 178.262,171.350 178.306,171.348 178.177 C 171.345 178.048,171.250 178.089,171.136 178.268 C 171.020 178.451,169.988 178.671,168.787 178.770 C 165.768 179.018,165.942 179.158,169.222 179.121 C 173.032 179.078,173.617 178.933,173.723 178.008 C 173.802 177.323,173.738 177.270,172.833 177.270 C 172.297 177.270,171.924 177.377,172.005 177.508 M162.951 179.413 C 162.581 179.704,162.191 179.855,162.085 179.749 C 161.979 179.643,161.932 179.730,161.982 179.943 C 162.053 180.250,161.621 180.351,159.919 180.428 C 156.745 180.572,156.829 180.721,160.099 180.745 C 163.414 180.770,163.820 180.668,163.820 179.813 C 163.820 179.286,163.981 179.168,164.829 179.080 L 165.837 178.974 164.730 178.929 C 163.984 178.898,163.404 179.056,162.951 179.413 M154.418 180.771 C 153.907 180.891,153.344 181.189,153.166 181.433 C 152.988 181.676,152.498 181.979,152.077 182.105 C 151.470 182.287,151.693 182.339,153.150 182.358 C 154.949 182.380,154.996 182.363,155.289 181.587 C 155.514 180.992,155.794 180.766,156.409 180.688 C 157.183 180.590,157.176 180.583,156.288 180.568 C 155.770 180.560,154.929 180.651,154.418 180.771 M149.899 182.297 C 150.158 182.365,150.582 182.365,150.841 182.297 C 151.100 182.229,150.888 182.174,150.370 182.174 C 149.852 182.174,149.640 182.229,149.899 182.297 M144.641 182.926 C 144.562 183.226,144.397 183.454,144.273 183.432 C 144.150 183.411,143.988 183.416,143.914 183.445 C 143.840 183.473,143.484 183.551,143.123 183.617 C 141.834 183.854,142.242 183.995,144.219 183.995 C 146.293 183.995,146.873 183.748,146.873 182.865 C 146.873 182.115,144.838 182.171,144.641 182.926 M135.729 184.417 C 135.496 184.650,135.306 184.936,135.306 185.052 C 135.306 185.169,134.549 185.386,133.625 185.534 L 131.944 185.803 134.064 185.840 C 136.260 185.879,137.727 185.352,138.095 184.393 C 138.312 183.829,136.296 183.850,135.729 184.417 M76.395 185.177 C 76.395 185.384,76.819 185.925,77.337 186.380 C 77.855 186.834,78.280 187.422,78.283 187.685 C 78.288 188.351,78.584 188.734,79.255 188.943 C 79.610 189.053,79.889 189.426,79.988 189.921 C 80.112 190.540,80.293 190.720,80.794 190.720 C 81.296 190.720,81.475 190.899,81.601 191.527 C 81.716 192.102,81.917 192.334,82.303 192.334 C 82.667 192.334,82.973 192.641,83.238 193.275 L 83.631 194.217 86.940 194.213 C 90.952 194.208,91.459 194.100,91.459 193.244 C 91.459 192.688,91.593 192.598,92.468 192.571 C 93.023 192.554,93.249 192.482,92.971 192.410 C 92.117 192.191,89.583 192.609,89.650 192.957 C 89.683 193.132,89.560 193.245,89.375 193.208 C 89.190 193.171,89.038 193.307,89.038 193.511 C 89.038 193.793,88.601 193.874,87.213 193.847 C 85.316 193.812,83.255 192.467,83.255 191.265 C 83.255 191.037,82.971 190.814,82.618 190.764 C 82.209 190.706,81.877 190.399,81.691 189.907 C 81.532 189.486,81.181 189.083,80.910 189.012 C 80.640 188.942,80.289 188.510,80.129 188.053 C 79.937 187.501,79.661 187.223,79.305 187.223 C 78.960 187.223,78.664 186.942,78.471 186.431 C 78.298 185.973,77.912 185.575,77.553 185.485 C 77.212 185.399,76.933 185.211,76.933 185.065 C 76.933 184.920,76.812 184.802,76.664 184.802 C 76.516 184.802,76.395 184.971,76.395 185.177 M127.108 186.426 C 126.404 187.026,126.004 187.130,124.143 187.196 C 120.913 187.311,121.345 187.492,124.851 187.492 C 128.019 187.492,128.581 187.324,128.581 186.381 C 128.581 186.113,128.838 185.863,129.186 185.794 C 129.519 185.727,129.371 185.686,128.856 185.702 C 128.273 185.721,127.615 185.994,127.108 186.426 M118.364 187.447 C 118.213 187.496,118.090 187.694,118.090 187.886 C 118.090 188.312,117.314 188.602,115.535 188.839 C 114.345 188.997,114.454 189.023,116.476 189.058 C 119.381 189.109,119.973 188.955,119.973 188.150 C 119.973 187.648,120.144 187.504,120.847 187.414 C 121.328 187.353,121.028 187.315,120.179 187.330 C 119.331 187.345,118.514 187.397,118.364 187.447 M108.843 189.947 L 108.070 190.720 109.045 190.720 C 109.949 190.720,110.020 190.661,110.020 189.913 C 110.020 188.938,109.848 188.943,108.843 189.947 M99.664 191.258 C 99.570 191.553,99.410 191.805,99.309 191.816 C 96.941 192.073,96.865 192.701,99.225 192.515 C 101.495 192.337,101.313 192.419,101.554 191.459 C 101.796 190.493,99.968 190.299,99.664 191.258 M95.831 192.519 C 96.089 192.587,96.513 192.587,96.772 192.519 C 97.031 192.451,96.819 192.396,96.301 192.396 C 95.783 192.396,95.572 192.451,95.831 192.519 " stroke="none" fill="#f01018" fill-rule="evenodd"></path></g></svg>