<svg id="svg" version="1.1" xmlns="http://www.w3.org/2000/svg" xmlns:xlink="http://www.w3.org/1999/xlink" width="400" height="267.78242677824267" viewBox="0, 0, 400,267.78242677824267"><g id="svgg"><path id="path0" d="M275.378 104.700 C 275.356 111.140,275.289 116.091,275.229 115.700 C 275.084 114.754,274.999 114.741,268.537 114.689 C 262.313 114.639,262.023 114.684,262.023 115.703 C 262.023 116.389,261.970 116.413,260.348 116.454 C 257.749 116.520,257.199 116.592,257.355 116.845 C 257.435 116.974,257.364 117.080,257.198 117.080 C 257.022 117.080,256.965 117.295,257.061 117.598 C 257.197 118.029,257.077 118.130,256.342 118.200 C 255.603 118.271,255.445 118.406,255.374 119.022 C 255.295 119.706,254.854 119.938,253.918 119.791 C 253.808 119.773,253.695 120.090,253.667 120.496 C 253.639 120.901,253.548 120.147,253.466 118.821 L 253.315 116.410 243.626 116.410 C 238.296 116.410,233.836 116.510,233.713 116.633 C 233.379 116.967,233.306 172.214,233.639 172.836 C 233.950 173.417,255.018 173.651,255.090 173.074 C 255.109 172.927,255.154 172.686,255.191 172.539 C 255.228 172.391,255.273 165.338,255.291 156.865 L 255.325 141.460 256.129 141.460 C 256.931 141.460,256.932 141.458,256.932 139.870 C 256.932 138.335,256.958 138.278,257.669 138.196 C 258.283 138.125,258.420 137.966,258.490 137.240 C 258.564 136.475,258.669 136.370,259.361 136.370 C 260.056 136.370,260.147 136.277,260.147 135.566 L 260.147 134.762 262.272 134.762 C 264.444 134.762,265.238 134.434,265.238 133.537 C 265.238 133.231,265.776 133.155,267.935 133.155 C 270.442 133.155,270.621 133.190,270.474 133.653 C 270.197 134.526,272.119 134.899,274.950 134.521 C 275.060 134.506,275.180 134.163,275.215 133.758 C 275.251 133.352,275.341 142.063,275.416 153.115 L 275.553 173.208 286.269 173.208 L 296.986 173.208 297.056 162.338 L 297.126 151.467 297.914 151.582 C 298.668 151.693,298.706 151.764,298.782 153.209 C 298.857 154.637,298.903 154.726,299.630 154.854 C 300.354 154.982,300.401 155.073,300.454 156.419 C 300.513 157.912,300.886 158.438,301.741 158.234 C 302.164 158.132,302.453 159.788,302.240 161.091 C 302.221 161.205,302.569 161.371,303.012 161.460 C 303.684 161.594,303.818 161.749,303.818 162.391 C 303.818 163.066,303.916 163.161,304.609 163.161 C 305.392 163.161,305.401 163.178,305.480 164.836 C 305.556 166.441,305.590 166.514,306.296 166.595 C 306.701 166.642,307.045 166.823,307.059 166.997 C 307.074 167.171,307.112 167.555,307.144 167.850 C 307.176 168.145,307.224 168.717,307.251 169.123 C 307.293 169.749,307.419 169.859,308.092 169.859 C 308.875 169.859,308.883 169.876,308.962 171.534 L 309.042 173.208 321.366 173.285 C 336.319 173.378,335.484 173.476,335.379 171.653 C 335.304 170.357,335.247 170.255,334.561 170.176 C 333.859 170.096,333.825 170.023,333.825 168.652 C 333.825 167.167,333.544 166.728,332.686 166.869 C 332.313 166.930,332.217 166.751,332.217 165.991 C 332.217 165.109,332.156 165.037,331.413 165.037 C 330.703 165.037,330.610 164.946,330.610 164.251 C 330.610 163.593,330.490 163.451,329.873 163.380 C 329.220 163.305,329.128 163.173,329.065 162.224 C 328.931 160.219,328.795 159.946,327.925 159.946 C 327.216 159.946,327.127 159.856,327.127 159.143 C 327.127 158.428,327.037 158.339,326.323 158.339 L 325.519 158.339 325.519 156.731 C 325.519 155.641,325.411 155.114,325.184 155.093 C 325.000 155.076,324.670 155.046,324.451 155.026 C 324.230 155.006,323.990 154.631,323.914 154.186 C 323.807 153.565,323.617 153.364,323.081 153.302 C 322.458 153.229,322.362 153.063,322.144 151.694 C 321.923 150.298,321.839 150.160,321.165 150.083 C 320.526 150.009,320.429 149.880,320.429 149.105 C 320.429 148.278,320.368 148.216,319.625 148.267 C 318.844 148.321,318.549 147.579,318.799 146.188 C 318.914 145.543,318.465 144.943,317.865 144.943 C 317.351 144.943,317.214 144.804,317.214 144.283 C 317.214 143.600,316.349 142.908,315.869 143.205 C 315.716 143.299,315.606 142.974,315.606 142.431 C 315.606 141.610,315.696 141.485,316.343 141.411 C 316.922 141.344,317.098 141.168,317.164 140.589 C 317.211 140.184,317.392 139.839,317.566 139.822 C 317.741 139.805,318.064 139.775,318.285 139.755 C 318.531 139.733,318.719 139.387,318.770 138.864 C 318.838 138.161,318.980 137.995,319.574 137.927 C 320.252 137.848,320.299 137.752,320.375 136.303 L 320.455 134.762 321.380 134.762 C 322.224 134.762,322.304 134.694,322.304 133.976 C 322.304 133.318,322.424 133.177,323.041 133.106 C 323.446 133.059,323.793 132.870,323.811 132.686 C 323.830 132.502,323.860 132.110,323.878 131.815 C 323.902 131.438,324.101 131.279,324.553 131.279 C 325.312 131.279,325.519 130.844,325.519 129.248 C 325.519 128.111,325.551 128.064,326.323 128.064 C 327.037 128.064,327.127 127.975,327.127 127.261 C 327.127 126.607,327.239 126.456,327.729 126.453 C 328.367 126.448,329.063 126.111,329.025 125.824 C 328.898 124.879,329.050 124.581,329.658 124.581 C 330.262 124.581,330.330 124.452,330.497 122.974 C 330.672 121.425,330.707 121.366,331.448 121.366 C 332.120 121.366,332.217 121.267,332.217 120.580 C 332.217 119.922,332.337 119.781,332.954 119.710 C 333.634 119.631,333.697 119.522,333.775 118.294 C 333.907 116.196,334.457 116.287,321.725 116.288 L 310.516 116.289 310.516 117.220 C 310.516 118.076,310.451 118.151,309.712 118.151 C 308.998 118.151,308.908 118.241,308.908 118.955 C 308.908 119.615,308.798 119.759,308.292 119.759 C 307.547 119.759,307.024 120.227,307.214 120.723 C 307.298 120.942,307.051 121.219,306.590 121.422 C 305.557 121.876,305.434 122.103,305.429 123.559 C 305.426 124.727,305.374 124.820,304.690 124.898 C 304.109 124.965,303.925 125.152,303.816 125.787 C 303.739 126.232,303.499 126.607,303.279 126.627 C 303.059 126.647,302.751 126.677,302.593 126.694 C 302.435 126.711,302.278 127.350,302.243 128.115 C 302.167 129.778,302.093 129.929,301.437 129.757 C 300.814 129.594,300.459 130.055,300.368 131.145 C 300.350 131.366,300.107 131.547,299.828 131.547 C 299.122 131.547,298.815 132.243,298.758 133.967 C 298.730 134.822,298.656 134.911,297.991 134.882 L 297.254 134.849 297.185 113.903 L 297.117 92.956 286.268 92.973 L 275.419 92.990 275.378 104.700 M79.575 135.538 C 79.575 169.398,79.616 173.034,79.997 173.180 C 80.229 173.269,85.111 173.342,90.846 173.342 L 101.273 173.342 101.273 150.703 L 101.273 128.064 102.066 128.064 L 102.860 128.064 102.937 130.543 L 103.014 133.021 103.751 133.106 C 104.430 133.184,104.491 133.289,104.534 134.445 C 104.711 139.198,104.782 139.548,105.611 139.730 L 106.363 139.895 106.363 142.285 C 106.363 144.753,106.334 144.689,107.502 144.782 C 107.732 144.801,107.878 145.563,107.971 147.220 C 108.104 149.614,108.110 149.632,108.841 149.716 C 109.524 149.795,109.580 149.892,109.599 151.056 C 109.662 154.717,109.661 154.715,110.452 154.807 C 111.092 154.881,111.192 155.018,111.239 155.878 C 111.268 156.421,111.313 157.227,111.339 157.669 C 111.364 158.111,111.400 158.804,111.419 159.210 C 111.448 159.840,111.568 159.946,112.247 159.946 L 113.041 159.946 113.118 162.425 L 113.195 164.903 113.932 164.988 L 114.668 165.072 114.709 167.667 C 114.732 169.094,114.778 170.382,114.812 170.529 C 114.847 170.676,114.888 170.940,114.905 171.114 C 114.922 171.289,115.268 171.469,115.673 171.516 C 116.123 171.568,116.380 171.742,116.334 171.963 C 116.034 173.390,115.767 173.355,126.409 173.279 L 136.236 173.208 136.318 172.502 C 136.380 171.965,136.586 171.759,137.178 171.640 L 137.957 171.484 138.034 168.997 C 138.108 166.613,138.135 166.514,138.697 166.591 C 139.516 166.704,139.773 166.051,139.833 163.704 C 139.861 162.602,139.907 161.679,139.936 161.653 C 139.964 161.626,140.228 161.563,140.522 161.512 C 141.346 161.370,141.452 161.053,141.456 158.707 L 141.460 156.530 142.264 156.370 L 143.068 156.209 143.068 153.775 C 143.068 152.207,143.164 151.401,143.338 151.509 C 144.277 152.089,144.654 151.378,144.732 148.880 C 144.806 146.520,144.834 146.420,145.395 146.498 C 146.213 146.611,146.471 145.957,146.531 143.610 C 146.559 142.508,146.605 141.585,146.633 141.559 C 146.662 141.533,146.926 141.469,147.220 141.419 C 148.044 141.277,148.150 140.959,148.154 138.614 L 148.158 136.437 148.962 136.276 L 149.766 136.115 149.766 133.764 L 149.767 131.413 150.570 131.385 L 151.373 131.356 151.415 150.943 C 151.464 173.561,151.450 172.722,151.804 173.077 C 151.981 173.254,155.762 173.324,162.642 173.278 L 173.208 173.208 173.279 165.651 L 173.351 158.093 174.150 158.149 L 174.949 158.205 174.949 161.494 L 174.950 164.782 175.754 164.943 C 176.431 165.079,176.562 165.235,176.588 165.941 C 176.650 167.624,176.972 168.252,177.774 168.252 C 178.255 168.252,178.416 168.420,178.482 168.989 C 178.570 169.756,178.620 169.777,180.509 169.828 C 181.579 169.857,181.648 169.906,181.648 170.634 C 181.648 171.536,182.015 171.735,183.679 171.735 C 184.538 171.735,184.872 171.845,184.896 172.137 C 184.915 172.358,184.945 172.689,184.963 172.873 C 184.987 173.117,185.894 173.229,188.279 173.284 C 190.612 173.337,191.572 173.453,191.601 173.685 C 191.624 173.865,191.654 174.193,191.668 174.414 C 191.690 174.749,192.374 174.828,195.780 174.890 L 199.866 174.964 199.866 174.153 L 199.866 173.342 202.210 173.311 C 203.500 173.293,204.645 173.293,204.756 173.311 C 204.866 173.328,204.956 172.981,204.956 172.539 C 204.956 171.757,204.994 171.734,206.296 171.701 C 208.518 171.646,208.320 171.768,208.406 170.395 C 208.431 169.986,208.629 169.859,209.243 169.859 C 209.951 169.859,210.047 169.767,210.047 169.086 C 210.047 168.432,210.170 168.295,210.851 168.195 L 211.654 168.077 211.688 170.308 C 211.706 171.535,211.736 172.689,211.755 172.873 C 211.781 173.135,213.968 173.208,221.701 173.208 L 231.614 173.208 231.688 169.123 L 231.762 165.037 230.951 165.037 L 230.141 165.037 230.141 147.517 C 230.141 128.860,230.175 129.367,228.935 129.843 C 228.606 129.969,228.527 129.690,228.501 128.294 C 228.452 125.625,228.250 124.997,227.409 124.900 C 226.817 124.832,226.675 124.665,226.607 123.962 C 226.538 123.253,226.410 123.107,225.854 123.103 C 225.305 123.100,225.160 122.941,225.050 122.222 C 224.977 121.740,224.826 121.350,224.715 121.356 C 223.554 121.417,223.443 121.347,223.443 120.563 C 223.443 119.826,223.366 119.759,222.523 119.759 C 221.718 119.759,221.592 119.666,221.518 119.022 C 221.434 118.288,221.426 118.285,219.089 118.208 L 216.745 118.131 216.745 117.366 C 216.745 116.413,216.585 116.359,213.865 116.387 C 211.823 116.408,211.655 116.369,211.655 115.872 C 211.654 114.774,211.002 114.685,202.955 114.686 L 195.294 114.686 195.136 115.481 C 195.000 116.158,194.853 116.276,194.139 116.278 C 190.009 116.286,185.117 116.567,185.243 116.789 C 185.626 117.466,184.855 118.025,183.364 118.151 C 181.885 118.277,181.776 118.332,181.698 119.006 C 181.634 119.563,181.452 119.745,180.895 119.810 C 180.181 119.892,180.173 119.914,180.097 122.237 C 180.015 124.708,180.012 124.702,181.313 124.653 C 181.590 124.643,181.903 133.228,181.675 134.576 C 181.655 134.694,182.357 134.765,183.236 134.733 C 184.115 134.701,184.826 134.604,184.816 134.518 C 184.684 133.310,184.840 133.181,186.537 133.101 C 188.142 133.024,188.215 132.990,188.296 132.284 L 188.381 131.547 192.114 131.514 C 194.167 131.495,195.998 131.465,196.182 131.447 C 196.366 131.428,196.555 131.021,196.601 130.543 L 196.685 129.672 199.213 129.672 C 201.655 129.672,201.742 129.692,201.746 130.275 C 201.750 130.912,202.088 131.608,202.374 131.570 C 204.693 131.260,206.802 131.594,206.881 132.284 C 206.948 132.863,207.124 133.039,207.703 133.106 C 208.320 133.177,208.439 133.318,208.439 133.976 C 208.439 134.671,208.533 134.762,209.243 134.762 C 209.958 134.762,210.047 134.852,210.047 135.566 L 210.047 136.370 201.407 136.419 C 190.293 136.482,189.931 136.495,189.985 136.839 C 190.191 138.144,190.058 138.222,187.475 138.302 C 185.735 138.356,184.987 138.479,184.963 138.714 C 184.945 138.898,184.915 139.230,184.896 139.451 C 184.870 139.760,184.491 139.853,183.255 139.853 C 181.656 139.853,181.648 139.857,181.648 140.639 C 181.648 141.297,181.528 141.438,180.911 141.509 C 180.332 141.576,180.156 141.752,180.089 142.331 C 180.011 143.014,179.570 143.247,178.634 143.099 C 178.523 143.082,178.414 143.218,178.392 143.403 C 178.369 143.587,178.323 143.858,178.289 144.005 C 178.255 144.153,178.213 144.424,178.196 144.608 C 178.178 144.795,177.809 144.943,177.361 144.943 C 176.647 144.943,176.557 145.032,176.557 145.747 C 176.557 146.494,176.400 146.618,175.563 146.531 C 175.159 146.489,174.987 147.594,174.969 150.337 C 174.949 153.312,174.870 153.489,173.543 153.513 C 173.433 153.515,173.340 141.189,173.338 126.122 C 173.336 111.055,173.238 98.576,173.120 98.390 C 172.951 98.124,169.597 98.068,157.250 98.122 L 141.594 98.192 141.460 99.799 C 141.343 101.201,141.258 101.400,140.794 101.359 C 140.005 101.288,139.861 101.717,139.857 104.153 C 139.852 106.452,139.758 106.602,138.446 106.395 C 138.336 106.377,138.227 106.755,138.204 107.234 C 138.182 107.713,138.136 108.225,138.101 108.372 C 138.067 108.520,138.025 109.258,138.008 110.013 C 137.979 111.301,137.929 111.396,137.209 111.540 C 136.443 111.693,136.441 111.700,136.394 113.895 C 136.340 116.412,136.293 116.544,135.453 116.544 C 134.859 116.544,134.833 116.635,134.784 118.871 C 134.727 121.437,134.638 121.747,134.020 121.510 C 133.357 121.255,133.163 121.872,133.159 124.246 C 133.155 126.546,133.060 126.696,131.748 126.489 C 131.638 126.471,131.529 126.849,131.506 127.328 C 131.484 127.806,131.438 128.319,131.403 128.466 C 131.369 128.614,131.327 129.352,131.310 130.107 C 131.281 131.408,131.237 131.489,130.477 131.641 C 129.924 131.751,129.688 131.948,129.716 132.277 C 129.936 134.863,129.657 136.638,129.031 136.638 C 128.206 136.638,128.064 137.052,128.064 139.468 C 128.064 141.368,128.036 141.457,127.382 141.621 C 126.476 141.848,126.501 141.906,126.406 139.339 C 126.321 137.048,126.251 136.902,125.050 136.531 C 124.649 136.407,124.581 136.038,124.581 133.967 L 124.581 131.547 123.778 131.547 L 122.974 131.547 122.974 129.002 C 122.974 127.602,122.883 126.471,122.773 126.489 C 121.467 126.695,121.390 126.561,121.309 123.979 C 121.255 122.238,121.133 121.490,120.898 121.467 C 120.713 121.448,120.382 121.418,120.161 121.400 C 119.838 121.373,119.759 120.923,119.759 119.122 C 119.759 116.777,119.432 116.036,118.547 116.375 C 117.974 116.595,117.911 116.294,117.825 112.927 L 117.749 109.980 117.013 109.895 C 116.279 109.811,116.276 109.802,116.276 107.707 C 116.276 105.172,116.141 104.756,115.320 104.756 C 114.708 104.756,114.686 104.680,114.612 102.277 C 114.557 100.537,114.435 99.789,114.200 99.766 C 114.015 99.747,113.699 99.717,113.496 99.699 C 113.294 99.680,113.056 99.303,112.967 98.861 L 112.806 98.058 96.191 98.058 L 79.575 98.058 79.575 135.538 M340.552 99.582 C 340.485 101.249,340.375 101.575,339.899 101.516 C 339.028 101.408,338.975 101.583,338.932 104.668 C 338.887 107.910,338.821 108.279,338.292 108.214 C 337.421 108.106,337.367 108.281,337.325 111.366 C 337.278 114.738,337.207 115.058,336.565 114.812 C 335.862 114.542,335.708 115.203,335.704 118.504 C 335.700 121.517,335.675 121.662,335.179 121.505 C 334.089 121.159,333.405 126.006,334.055 129.471 C 334.114 129.786,350.429 129.719,350.469 129.404 C 350.487 129.257,350.532 129.015,350.569 128.868 C 350.606 128.721,350.651 128.419,350.670 128.198 C 350.688 127.977,350.869 127.796,351.072 127.796 C 351.785 127.796,352.155 126.919,352.299 124.889 C 352.419 123.199,352.521 122.852,352.878 122.910 C 353.622 123.032,353.891 122.352,353.973 120.148 C 354.035 118.482,354.140 118.012,354.454 117.991 C 354.675 117.977,355.007 117.947,355.191 117.924 C 355.431 117.895,355.526 117.201,355.526 115.472 L 355.526 113.061 356.301 113.061 C 357.280 113.061,357.401 112.735,357.401 110.092 L 357.401 107.971 358.205 107.971 L 359.009 107.971 359.009 106.229 C 359.009 104.571,359.039 104.488,359.650 104.488 C 360.513 104.488,360.616 104.100,360.616 100.849 L 360.616 98.058 350.615 98.058 L 340.614 98.058 340.552 99.582 M370.642 114.971 C 370.550 115.119,370.315 115.179,370.120 115.105 C 369.684 114.937,369.078 115.611,369.316 115.996 C 369.426 116.174,369.021 116.287,368.201 116.307 C 365.014 116.382,364.099 116.645,364.099 117.487 C 364.099 118.047,363.972 118.151,363.295 118.151 C 362.853 118.151,362.492 118.268,362.492 118.411 C 362.492 118.554,362.330 118.608,362.133 118.533 C 361.935 118.457,361.604 118.611,361.396 118.876 C 361.045 119.323,361.054 119.329,361.530 118.955 C 362.015 118.574,362.023 118.584,361.678 119.138 C 361.477 119.460,361.247 119.717,361.166 119.709 C 359.996 119.599,359.474 119.822,359.199 120.550 C 358.992 121.098,358.691 121.366,358.218 121.421 C 357.664 121.485,357.519 121.664,357.451 122.371 C 357.401 122.889,357.212 123.255,356.982 123.275 C 356.771 123.294,356.458 123.324,356.288 123.342 C 355.954 123.378,355.824 123.853,355.695 125.519 C 355.624 126.442,355.531 126.582,355.026 126.526 C 354.035 126.416,353.909 127.386,354.029 134.179 C 354.161 141.704,354.089 141.186,355.035 141.375 C 355.673 141.503,355.794 141.661,355.797 142.364 C 355.803 143.751,356.089 144.404,356.763 144.573 C 357.209 144.685,357.401 144.923,357.401 145.365 C 357.401 146.153,358.114 146.551,359.527 146.551 C 360.302 146.551,360.626 146.667,360.650 146.952 C 360.668 147.173,360.698 147.505,360.717 147.689 C 360.735 147.873,361.160 148.063,361.662 148.111 C 362.226 148.165,362.866 148.491,363.344 148.969 C 364.001 149.626,364.361 149.752,365.771 149.820 C 367.286 149.893,367.439 149.956,367.583 150.569 C 367.776 151.390,368.464 151.566,371.663 151.609 C 373.898 151.640,374.009 151.670,374.164 152.285 C 374.340 152.989,374.946 153.239,376.490 153.245 C 377.324 153.248,377.495 153.342,377.495 153.798 C 377.495 154.175,377.796 154.473,378.451 154.747 C 378.977 154.967,379.355 155.292,379.291 155.470 C 379.227 155.648,379.279 155.997,379.407 156.246 C 379.548 156.519,379.533 156.765,379.371 156.865 C 379.223 156.956,379.102 157.325,379.102 157.685 L 379.102 158.339 372.405 158.339 C 365.325 158.339,365.495 158.367,365.673 157.205 C 365.726 156.862,364.219 156.600,361.621 156.502 C 360.818 156.471,360.616 156.359,360.616 155.943 C 360.616 155.657,360.466 155.328,360.281 155.211 C 360.020 155.046,355.826 154.807,355.784 154.955 C 355.778 154.974,355.704 156.433,355.619 158.198 C 355.471 161.281,355.122 162.369,354.423 161.936 C 354.115 161.746,353.989 163.228,353.959 167.377 L 353.929 171.459 354.660 171.620 C 355.063 171.709,355.512 171.811,355.659 171.847 C 355.805 171.883,355.926 172.138,355.927 172.414 C 355.928 173.127,356.762 173.285,360.683 173.316 L 364.099 173.342 364.099 174.007 C 364.099 174.962,364.237 174.974,374.548 174.891 L 383.791 174.816 383.876 174.079 L 383.961 173.342 387.181 173.342 L 390.402 173.342 390.705 172.539 C 390.959 171.865,391.162 171.730,391.954 171.704 C 392.475 171.687,393.021 171.645,393.168 171.611 C 393.315 171.576,393.587 171.530,393.771 171.508 C 393.955 171.485,394.092 171.376,394.074 171.266 C 393.913 170.247,394.143 169.859,394.910 169.859 C 395.624 169.859,395.713 169.770,395.713 169.056 C 395.713 168.316,395.788 168.252,396.651 168.252 C 397.510 168.252,397.589 168.186,397.589 167.466 C 397.589 166.808,397.708 166.666,398.326 166.595 C 398.939 166.525,399.076 166.365,399.146 165.640 C 399.198 165.100,399.377 164.769,399.615 164.769 C 399.942 164.769,400.000 163.400,400.000 155.660 C 400.000 147.881,399.943 146.551,399.611 146.551 C 399.327 146.551,399.202 146.140,399.143 145.012 C 399.066 143.545,399.026 143.466,398.281 143.337 C 397.708 143.238,397.487 143.041,397.455 142.599 C 397.383 141.620,397.293 141.575,395.262 141.501 C 394.251 141.464,394.133 141.388,394.057 140.723 C 393.986 140.109,393.827 139.973,393.101 139.903 C 392.541 139.849,392.230 139.675,392.230 139.415 C 392.230 138.898,391.622 138.285,391.134 138.310 C 390.926 138.321,389.642 138.311,388.279 138.287 L 385.800 138.245 385.800 137.470 C 385.800 136.505,385.481 136.418,381.916 136.415 L 379.236 136.413 379.100 135.655 C 378.953 134.840,378.968 134.846,376.959 134.796 C 375.657 134.763,375.620 134.740,375.620 133.958 C 375.620 133.244,375.530 133.155,374.816 133.155 C 373.841 133.155,373.832 133.092,374.680 132.243 C 375.217 131.706,375.652 131.563,376.891 131.515 C 378.482 131.452,379.077 131.082,379.094 130.141 C 379.109 129.292,380.834 129.502,380.884 130.359 C 380.948 131.468,381.160 131.508,387.073 131.532 L 390.891 131.547 390.891 132.351 L 390.891 133.155 392.648 133.155 C 393.727 133.155,394.343 133.256,394.243 133.417 C 393.820 134.102,394.625 134.711,395.898 134.669 C 397.513 134.617,397.528 134.567,397.562 128.906 C 397.585 125.167,397.647 124.546,397.983 124.675 C 398.919 125.034,399.217 124.121,399.138 121.138 L 399.062 118.285 397.388 118.206 C 395.730 118.127,395.713 118.118,395.713 117.335 C 395.713 116.900,395.623 116.531,395.512 116.515 C 395.402 116.499,393.868 116.442,392.104 116.388 C 389.010 116.293,388.896 116.269,388.889 115.701 C 388.884 115.286,388.661 115.052,388.139 114.911 C 386.978 114.599,370.838 114.654,370.642 114.971 M206.832 148.962 L 206.832 149.766 208.439 149.766 L 210.047 149.766 210.047 150.703 C 210.047 151.523,209.963 151.641,209.382 151.641 C 208.663 151.641,208.505 151.998,208.377 153.918 C 208.310 154.916,208.254 154.984,207.569 154.904 C 206.906 154.826,206.832 154.901,206.832 155.641 C 206.832 156.099,206.683 156.482,206.497 156.504 C 206.313 156.527,206.042 156.573,205.894 156.607 C 205.747 156.642,205.476 156.684,205.291 156.701 C 205.105 156.718,204.956 157.087,204.956 157.535 L 204.956 158.339 200.804 158.339 C 196.350 158.339,196.417 158.361,196.613 156.952 C 196.627 156.853,196.279 156.692,195.841 156.596 L 195.044 156.421 195.044 154.031 L 195.044 151.641 195.847 151.641 C 196.586 151.641,196.651 151.566,196.651 150.712 L 196.651 149.782 199.933 149.707 L 203.215 149.632 203.300 148.895 C 203.382 148.176,203.427 148.158,205.108 148.158 L 206.832 148.158 206.832 148.962 " stroke="none" fill="#94949c" fill-rule="evenodd"></path><path id="path1" d="M0.000 135.704 L 0.000 173.350 36.825 173.279 C 66.609 173.222,73.717 173.142,73.999 172.860 C 74.454 172.405,74.658 99.425,74.206 98.581 C 73.931 98.066,73.362 98.058,36.963 98.058 L 0.000 98.058 0.000 135.704 M20.213 115.800 C 20.530 116.253,20.630 117.114,20.630 119.401 C 20.630 122.566,20.945 123.448,21.431 121.644 C 21.637 120.879,21.952 120.447,22.515 120.156 C 22.952 119.930,23.309 119.647,23.309 119.527 C 23.309 117.696,29.199 118.812,30.689 120.926 C 31.153 121.585,31.603 121.188,31.610 120.113 C 31.614 119.530,32.251 118.687,32.687 118.687 C 32.814 118.687,32.994 118.447,33.087 118.153 C 33.622 116.467,36.101 116.212,37.008 117.749 C 37.432 118.468,37.737 118.687,38.316 118.687 C 38.731 118.687,39.132 118.838,39.206 119.022 C 39.281 119.206,39.351 118.664,39.363 117.816 C 39.395 115.437,40.640 114.593,42.612 115.613 C 43.276 115.956,43.403 116.184,43.403 117.033 C 43.403 118.357,43.781 118.687,45.301 118.687 C 47.472 118.687,48.504 119.487,49.043 121.587 L 49.404 122.998 49.830 121.910 C 50.827 119.359,55.232 117.525,56.549 119.112 C 56.743 119.345,57.427 119.898,58.069 120.340 L 59.237 121.143 59.156 123.509 C 59.076 125.870,59.295 126.717,59.767 125.873 C 59.904 125.628,60.378 125.348,60.819 125.251 C 61.821 125.031,61.851 124.648,60.884 124.411 C 59.905 124.172,59.754 123.890,59.750 122.288 C 59.743 120.100,61.291 118.687,63.696 118.687 C 66.425 118.687,67.351 119.917,66.435 122.327 C 66.206 122.929,66.252 123.154,66.703 123.634 C 67.720 124.717,67.253 127.778,66.067 127.802 C 65.906 127.806,65.472 128.044,65.104 128.332 C 63.431 129.640,60.446 128.969,59.746 127.128 L 59.441 126.327 59.009 127.040 C 57.563 129.422,54.836 129.413,50.100 127.008 C 49.853 126.883,49.638 126.247,49.541 125.358 L 49.384 123.912 49.340 125.684 C 49.295 127.515,48.648 128.868,47.816 128.868 C 46.356 128.868,45.278 127.407,45.278 125.428 C 45.278 121.462,43.525 121.853,43.434 125.839 C 43.369 128.723,39.652 130.119,39.652 127.261 C 39.652 126.966,39.531 126.725,39.384 126.725 C 39.236 126.725,39.116 126.966,39.116 127.261 C 39.116 128.802,36.701 129.387,34.861 128.291 C 33.396 127.419,33.222 127.074,33.222 125.048 C 33.222 122.922,32.866 121.955,32.265 122.454 C 32.055 122.628,31.882 123.216,31.882 123.758 C 31.882 124.390,31.641 125.072,31.212 125.653 C 30.844 126.152,30.543 126.694,30.543 126.856 C 30.543 128.333,25.770 129.248,23.709 128.166 C 21.788 127.157,21.480 126.811,21.263 125.421 C 21.048 124.051,20.880 124.354,20.493 126.807 C 20.260 128.281,19.573 128.875,18.407 128.612 C 16.667 128.220,15.919 127.130,16.353 125.620 C 16.685 124.460,16.674 120.760,16.334 119.285 C 15.987 117.780,16.436 115.908,17.238 115.520 C 18.299 115.007,19.753 115.144,20.213 115.800 M15.113 116.564 C 16.455 118.159,15.819 119.380,13.702 119.275 C 11.734 119.178,10.449 119.464,10.449 119.999 C 10.449 120.253,10.272 120.694,10.055 120.980 C 8.610 122.891,10.386 125.326,13.262 125.375 C 15.656 125.416,16.278 126.109,15.415 127.777 C 14.812 128.943,10.995 129.447,10.182 128.468 C 10.000 128.248,9.401 127.947,8.852 127.799 C 7.670 127.481,6.964 126.887,6.460 125.787 C 6.257 125.345,5.866 124.545,5.591 124.009 C 4.373 121.639,6.170 117.479,8.686 116.845 C 9.320 116.686,9.990 116.372,10.176 116.148 C 10.876 115.305,14.297 115.594,15.113 116.564 M39.116 121.902 C 39.116 122.050,38.829 122.170,38.479 122.170 C 36.956 122.170,36.671 125.171,38.177 125.342 C 38.619 125.392,39.069 125.573,39.178 125.744 C 39.287 125.915,39.377 125.060,39.380 123.845 C 39.382 122.629,39.324 121.634,39.250 121.634 C 39.176 121.634,39.116 121.755,39.116 121.902 M25.467 122.822 C 25.031 123.347,25.218 124.867,25.760 125.206 C 26.422 125.620,27.595 124.765,27.595 123.868 C 27.595 122.699,26.156 121.992,25.467 122.822 M18.269 131.346 C 18.455 131.678,18.670 132.672,18.748 133.556 L 18.888 135.163 21.165 135.164 C 24.371 135.164,24.947 135.716,25.573 139.384 C 25.780 140.597,26.010 140.649,26.479 139.590 C 26.741 138.996,27.120 138.710,27.951 138.476 L 29.069 138.160 28.200 137.969 C 26.589 137.614,25.959 136.368,26.967 135.532 C 27.922 134.740,33.171 135.035,33.813 135.916 L 34.361 136.669 34.859 135.849 C 35.133 135.399,35.527 135.030,35.734 135.030 C 35.941 135.030,36.185 134.759,36.276 134.427 C 36.910 132.113,39.382 131.718,40.455 133.759 C 40.824 134.460,41.324 135.097,41.567 135.175 C 42.688 135.535,42.355 137.242,41.069 137.731 C 40.191 138.064,40.372 141.728,41.266 141.728 C 41.669 141.728,42.331 142.561,42.331 143.068 C 42.331 143.975,41.585 144.407,40.021 144.407 C 37.196 144.407,36.441 143.437,36.438 139.801 C 36.437 137.921,36.163 137.426,35.451 138.017 C 35.092 138.315,35.049 138.789,35.183 140.986 L 35.342 143.601 34.615 143.977 C 33.161 144.730,27.415 144.519,26.579 143.684 C 26.154 143.258,25.840 143.108,25.777 143.300 C 25.612 143.793,24.226 144.407,23.276 144.407 C 21.811 144.407,21.434 143.811,21.429 141.486 C 21.424 139.105,21.226 138.643,20.328 138.919 C 19.244 139.252,19.067 139.560,18.892 141.410 C 18.640 144.088,18.449 144.407,17.103 144.407 C 14.986 144.407,14.736 143.886,14.731 139.471 C 14.727 135.125,14.656 134.899,13.439 135.323 C 12.192 135.758,12.056 136.227,12.056 140.088 C 12.056 144.014,11.864 144.407,9.941 144.407 C 8.216 144.407,8.038 143.986,8.033 139.878 C 8.029 135.767,8.011 135.712,6.632 135.459 C 5.085 135.174,4.314 133.430,5.329 132.511 C 5.770 132.113,6.418 132.059,10.298 132.103 C 14.427 132.149,14.805 132.113,15.351 131.616 C 16.490 130.581,17.774 130.462,18.269 131.346 M43.338 147.628 C 43.650 147.990,43.849 148.806,43.938 150.085 C 44.088 152.221,44.387 152.562,45.065 151.371 C 45.473 150.654,45.658 150.569,46.819 150.569 C 48.682 150.569,49.376 151.551,48.292 152.654 C 46.861 154.110,46.753 156.385,48.068 157.343 C 48.834 157.901,49.063 159.805,48.439 160.429 C 47.707 161.161,46.164 160.812,45.233 159.703 L 44.354 158.656 43.538 159.600 C 42.424 160.889,40.805 161.018,40.242 159.863 C 39.727 158.807,39.633 148.559,40.130 147.689 C 40.602 146.863,42.647 146.824,43.338 147.628 M8.403 148.061 C 8.791 148.449,9.109 148.920,9.109 149.106 C 9.109 149.292,9.499 149.692,9.976 149.994 L 10.844 150.543 11.250 149.552 C 12.888 145.552,16.258 147.014,17.298 152.177 C 17.539 153.374,17.798 152.779,18.075 150.388 C 18.521 146.539,21.969 146.351,21.969 150.176 C 21.969 152.332,22.404 152.656,23.624 151.408 C 24.858 150.145,28.737 150.124,29.916 151.373 C 30.723 152.228,31.727 152.431,31.974 151.789 C 32.238 151.099,33.747 150.506,34.798 150.678 C 36.082 150.888,36.179 150.888,37.059 150.679 C 38.305 150.383,39.116 150.999,39.116 152.241 C 39.116 153.194,38.657 154.052,38.148 154.052 C 37.742 154.052,36.705 155.230,36.705 155.691 C 36.705 155.951,36.595 156.231,36.462 156.314 C 36.328 156.397,36.133 157.097,36.028 157.870 C 35.629 160.795,34.662 161.295,32.525 159.682 C 31.334 158.783,31.053 158.671,30.747 158.977 C 30.547 159.176,30.088 159.430,29.726 159.540 C 29.365 159.650,28.693 159.967,28.234 160.245 C 27.170 160.888,25.861 160.892,25.223 160.253 C 24.950 159.980,24.405 159.676,24.013 159.577 C 22.507 159.199,21.436 157.719,21.430 156.008 C 21.428 155.448,21.351 154.708,21.259 154.364 C 21.024 153.490,20.639 154.157,20.634 155.446 C 20.620 158.746,19.236 160.750,16.971 160.750 C 15.712 160.750,14.735 159.864,14.735 158.722 C 14.735 158.383,14.613 157.783,14.462 157.388 L 14.189 156.669 13.259 157.839 C 12.748 158.482,12.328 159.155,12.327 159.333 C 12.321 160.038,11.161 160.750,10.020 160.750 C 7.999 160.750,6.945 158.986,6.420 154.722 C 6.239 153.248,5.866 151.597,5.592 151.052 C 4.840 149.557,5.201 148.132,6.441 147.704 C 7.684 147.275,7.603 147.261,8.403 148.061 M25.741 154.429 C 24.890 155.455,25.498 156.865,26.792 156.865 L 27.997 156.865 28.079 155.749 C 28.164 154.576,28.223 154.635,26.495 154.159 C 26.258 154.094,25.918 154.215,25.741 154.429 " stroke="none" fill="#f48424" fill-rule="evenodd"></path><path id="path2" d="M18.356 117.683 C 17.941 121.151,18.303 126.584,18.955 126.676 L 19.558 126.762 19.558 121.519 C 19.558 116.520,19.534 116.276,19.041 116.276 C 18.618 116.276,18.494 116.530,18.356 117.683 M40.723 121.500 C 40.723 125.966,40.782 126.725,41.125 126.725 C 41.433 126.725,41.527 126.384,41.527 125.269 C 41.527 123.385,41.828 122.639,42.851 121.992 L 43.684 121.465 42.672 120.811 C 41.672 120.165,41.660 120.137,41.582 118.217 C 41.522 116.732,41.412 116.276,41.114 116.276 C 40.785 116.276,40.723 117.105,40.723 121.500 M9.176 117.892 C 8.845 118.025,8.573 118.322,8.573 118.551 C 8.573 118.781,8.272 119.083,7.904 119.223 C 6.771 119.654,6.917 125.385,8.061 125.385 C 8.366 125.385,8.626 125.635,8.723 126.022 C 8.886 126.672,10.527 127.151,11.418 126.810 C 11.971 126.597,11.580 126.189,10.824 126.189 C 10.393 126.189,9.787 125.797,9.098 125.074 C 7.036 122.905,8.004 119.171,10.831 118.390 C 11.365 118.243,11.732 118.008,11.645 117.869 C 11.451 117.554,9.983 117.567,9.176 117.892 M13.695 117.864 C 13.426 118.030,13.442 118.112,13.767 118.236 C 13.995 118.324,14.249 118.289,14.329 118.158 C 14.541 117.816,14.102 117.613,13.695 117.864 M33.904 118.832 C 33.596 119.569,33.565 120.086,33.767 121.146 C 33.909 121.897,34.025 123.082,34.025 123.781 C 34.025 126.365,34.210 126.725,35.532 126.725 C 36.898 126.725,36.925 126.671,36.035 125.711 C 35.267 124.883,35.135 123.371,35.730 122.211 C 36.718 120.285,36.735 119.778,35.843 118.798 C 34.790 117.640,34.399 117.647,33.904 118.832 M45.420 121.089 C 45.149 121.389,45.036 121.639,45.169 121.644 C 46.163 121.683,46.977 122.978,47.130 124.760 C 47.249 126.139,47.387 126.591,47.689 126.591 C 48.668 126.591,48.290 121.240,47.294 120.990 C 46.949 120.904,46.498 120.768,46.291 120.688 C 46.083 120.609,45.692 120.789,45.420 121.089 M23.142 121.283 C 22.193 121.469,21.973 125.921,22.912 125.921 C 23.099 125.921,23.321 126.102,23.406 126.323 C 23.570 126.752,25.184 126.900,25.184 126.485 C 25.184 126.195,24.523 125.921,23.823 125.921 C 22.923 125.921,23.065 122.250,23.979 121.902 C 25.299 121.400,24.722 120.973,23.142 121.283 M28.331 121.256 C 28.231 121.356,28.327 121.689,28.543 121.997 C 29.384 123.198,28.903 126.189,27.870 126.189 C 27.589 126.189,27.285 126.309,27.194 126.457 C 27.093 126.620,27.494 126.725,28.222 126.725 L 29.416 126.725 29.694 125.050 C 30.148 122.315,29.388 120.199,28.331 121.256 M51.808 121.362 C 51.206 121.606,50.636 122.879,50.636 123.983 C 50.636 124.736,52.460 126.725,53.150 126.725 C 53.693 126.725,53.694 126.492,53.154 125.410 C 52.692 124.484,52.593 123.023,52.912 121.835 C 53.126 121.038,52.877 120.931,51.808 121.362 M60.996 121.277 C 60.077 122.196,61.412 123.755,62.816 123.402 L 63.514 123.227 62.635 122.168 C 61.779 121.137,61.362 120.911,60.996 121.277 M57.069 122.301 C 56.670 122.781,56.896 123.510,57.444 123.510 C 57.978 123.510,58.142 123.182,57.960 122.485 C 57.781 121.802,57.527 121.749,57.069 122.301 M64.149 125.050 C 64.060 125.455,63.939 125.942,63.880 126.132 C 63.729 126.621,64.421 126.818,65.281 126.532 C 66.354 126.174,66.646 124.913,65.737 124.567 C 64.666 124.160,64.321 124.265,64.149 125.050 M17.077 132.921 C 16.294 133.359,16.375 143.211,17.163 143.417 C 17.858 143.599,17.880 143.517,18.039 140.168 C 18.139 138.046,18.279 137.283,18.638 136.886 C 19.039 136.443,19.046 136.370,18.690 136.370 C 18.163 136.370,17.952 135.812,17.946 134.405 C 17.941 132.991,17.697 132.574,17.077 132.921 M6.884 133.058 C 6.789 133.152,7.101 133.424,7.576 133.661 C 8.813 134.279,9.076 135.336,9.094 139.761 C 9.108 143.369,9.134 143.547,9.625 143.418 C 10.097 143.295,10.149 142.972,10.228 139.626 C 10.322 135.668,10.759 134.393,12.257 133.709 C 13.527 133.130,12.849 132.887,9.958 132.887 C 8.361 132.887,6.978 132.964,6.884 133.058 M37.231 135.190 C 37.085 135.573,36.726 135.948,36.433 136.025 C 35.745 136.205,35.740 136.906,36.427 136.906 C 37.199 136.906,37.508 137.716,37.508 139.737 C 37.508 141.240,37.607 141.632,38.111 142.141 C 38.443 142.476,38.869 142.941,39.059 143.176 C 39.440 143.647,40.864 143.758,41.125 143.337 C 41.215 143.190,41.011 142.942,40.672 142.787 C 39.996 142.477,38.579 139.816,38.580 138.859 C 38.580 138.176,39.832 136.906,40.504 136.906 C 41.253 136.906,41.340 136.387,40.636 136.119 C 40.275 135.982,39.671 135.561,39.292 135.182 C 38.396 134.286,37.573 134.289,37.231 135.190 M272.408 134.684 C 272.741 134.748,273.223 134.745,273.479 134.678 C 273.735 134.611,273.463 134.559,272.873 134.562 C 272.284 134.565,272.074 134.620,272.408 134.684 M20.228 136.350 L 19.424 136.551 20.228 136.753 C 20.670 136.864,21.231 137.009,21.476 137.075 C 22.139 137.253,22.290 137.843,22.438 140.823 C 22.561 143.310,22.614 143.525,23.074 143.404 C 23.852 143.201,23.741 137.739,22.934 136.461 C 22.813 136.269,20.869 136.190,20.228 136.350 M28.193 136.282 C 26.643 136.499,27.565 136.906,29.605 136.906 C 31.971 136.906,32.572 137.380,32.097 138.871 C 31.949 139.337,31.856 139.960,31.890 140.255 C 31.925 140.549,31.967 141.333,31.985 141.996 C 32.017 143.223,32.354 143.714,32.998 143.467 C 33.332 143.339,33.267 136.861,32.928 136.523 C 32.743 136.338,29.115 136.154,28.193 136.282 M27.490 140.009 C 26.923 141.487,27.441 143.251,28.490 143.412 C 29.837 143.618,30.159 143.239,29.075 142.723 C 28.093 142.254,27.813 141.306,28.389 140.396 C 28.554 140.135,28.530 139.931,28.318 139.797 C 27.842 139.494,27.671 139.538,27.490 140.009 M399.196 146.149 C 399.196 146.370,399.377 146.551,399.598 146.551 C 399.819 146.551,400.000 146.370,400.000 146.149 C 400.000 145.928,399.819 145.747,399.598 145.747 C 399.377 145.747,399.196 145.928,399.196 146.149 M40.873 148.098 C 40.673 148.298,40.680 157.915,40.881 158.438 C 41.156 159.155,42.063 158.348,42.063 157.388 C 42.063 156.005,42.602 155.509,43.413 156.146 C 43.777 156.432,44.315 156.711,44.609 156.766 C 44.903 156.821,45.325 157.255,45.546 157.730 C 45.942 158.583,46.439 158.844,46.740 158.357 C 46.825 158.220,46.772 158.032,46.622 157.940 C 46.472 157.847,46.350 157.481,46.350 157.127 C 46.350 156.762,46.123 156.361,45.827 156.203 C 45.540 156.049,45.147 155.593,44.955 155.189 C 44.709 154.674,44.364 154.427,43.802 154.365 C 42.297 154.197,42.063 153.721,42.063 150.827 C 42.063 148.289,41.644 147.327,40.873 148.098 M7.234 151.183 C 7.234 153.178,7.467 154.588,7.798 154.588 C 8.195 154.588,8.308 153.448,8.102 151.529 C 7.835 149.034,7.234 148.795,7.234 151.183 M12.324 151.358 C 12.324 153.613,12.426 153.649,13.741 151.857 C 15.015 150.120,14.959 149.658,13.461 149.549 L 12.324 149.467 12.324 151.358 M19.160 149.853 C 19.106 150.026,19.006 151.313,18.938 152.713 C 18.792 155.708,18.635 156.196,17.821 156.196 C 17.025 156.196,16.635 155.691,16.220 154.128 L 15.881 152.847 15.679 153.857 C 15.568 154.413,15.562 155.769,15.665 156.871 L 15.853 158.875 16.761 158.875 C 17.464 158.875,17.774 158.707,18.126 158.138 C 18.377 157.733,18.761 157.254,18.978 157.073 C 19.250 156.848,19.441 155.875,19.590 153.967 C 19.709 152.440,19.924 150.881,20.068 150.504 C 20.288 149.925,20.246 149.798,19.793 149.679 C 19.498 149.602,19.213 149.681,19.160 149.853 M34.053 152.813 C 33.554 153.414,33.769 158.473,34.293 158.473 C 34.602 158.473,34.726 158.017,34.829 156.515 C 34.959 154.624,35.559 153.550,36.504 153.522 C 37.020 153.507,36.624 153.019,35.968 152.863 C 35.563 152.766,35.037 152.630,34.800 152.560 C 34.563 152.490,34.227 152.604,34.053 152.813 M28.996 152.943 C 28.761 153.088,28.745 153.389,28.938 154.064 C 29.406 155.693,29.269 156.958,28.547 157.680 L 27.891 158.336 28.532 158.496 C 29.247 158.676,29.738 158.470,29.740 157.988 C 29.741 157.813,30.043 157.075,30.411 156.348 L 31.081 155.028 30.544 154.456 C 30.248 154.141,30.007 153.756,30.007 153.599 C 30.007 153.149,29.351 152.723,28.996 152.943 M45.680 152.981 C 45.461 153.334,45.782 153.836,46.100 153.639 C 46.426 153.438,46.424 152.713,46.098 152.713 C 45.959 152.713,45.771 152.833,45.680 152.981 M23.657 153.508 C 23.581 153.797,23.291 154.107,23.012 154.195 C 22.201 154.453,22.275 156.929,23.097 157.048 C 23.470 157.102,23.746 157.380,23.845 157.802 C 24.018 158.537,24.650 158.783,25.353 158.389 C 25.761 158.161,25.748 158.116,25.228 157.951 C 24.887 157.843,24.591 157.472,24.507 157.048 C 24.429 156.653,24.270 156.027,24.153 155.657 C 24.003 155.183,24.083 154.750,24.427 154.184 C 25.051 153.156,25.041 152.981,24.355 152.981 C 24.023 152.981,23.738 153.195,23.657 153.508 M8.692 156.026 C 8.320 157.509,9.041 158.913,10.128 158.823 C 11.111 158.741,11.118 158.732,11.093 157.567 C 11.054 155.786,9.072 154.513,8.692 156.026 " stroke="none" fill="#fcfaf8" fill-rule="evenodd"></path><path id="path3" d="M18.285 116.052 C 17.270 116.331,17.347 115.861,17.310 121.951 L 17.281 126.688 17.992 127.108 C 19.862 128.213,20.175 127.324,20.054 121.256 C 19.948 115.957,19.835 115.625,18.285 116.052 M40.656 116.029 C 39.978 116.425,39.945 126.259,40.618 127.220 L 41.049 127.836 41.654 127.267 C 42.107 126.841,42.296 126.290,42.407 125.063 C 42.791 120.830,46.350 121.001,46.350 125.253 C 46.350 126.094,46.526 126.569,47.046 127.130 L 47.742 127.881 48.290 127.016 C 48.884 126.078,48.853 122.272,48.242 121.130 C 47.582 119.897,46.189 119.395,44.450 119.764 C 42.531 120.171,42.590 120.219,42.399 118.106 C 42.214 116.061,41.685 115.430,40.656 116.029 M19.558 121.519 L 19.558 126.762 18.955 126.676 C 17.842 126.518,17.927 116.276,19.041 116.276 C 19.534 116.276,19.558 116.520,19.558 121.519 M41.582 118.217 C 41.660 120.137,41.672 120.165,42.672 120.811 L 43.684 121.465 42.851 121.992 C 41.828 122.639,41.527 123.385,41.527 125.269 C 41.527 126.384,41.433 126.725,41.125 126.725 C 40.782 126.725,40.723 125.966,40.723 121.500 C 40.723 117.105,40.785 116.276,41.114 116.276 C 41.412 116.276,41.522 116.732,41.582 118.217 M9.536 117.335 C 8.105 117.818,6.847 119.072,6.607 120.253 C 6.527 120.644,6.380 121.301,6.279 121.712 C 5.583 124.548,9.715 128.782,11.990 127.564 C 12.335 127.379,12.821 127.364,13.367 127.520 C 14.108 127.733,14.263 127.680,14.652 127.086 C 15.200 126.251,14.760 125.828,13.569 126.046 C 12.468 126.248,10.810 125.928,10.329 125.420 C 8.451 123.437,8.002 121.698,9.109 120.697 C 9.404 120.430,9.645 120.063,9.645 119.882 C 9.645 119.135,11.077 118.584,12.945 118.611 C 14.865 118.640,15.497 118.238,14.705 117.492 C 14.097 116.919,11.044 116.826,9.536 117.335 M11.645 117.869 C 11.732 118.008,11.365 118.243,10.831 118.390 C 8.004 119.171,7.036 122.905,9.098 125.074 C 9.787 125.797,10.393 126.189,10.824 126.189 C 11.580 126.189,11.971 126.597,11.418 126.810 C 10.527 127.151,8.886 126.672,8.723 126.022 C 8.626 125.635,8.366 125.385,8.061 125.385 C 6.917 125.385,6.771 119.654,7.904 119.223 C 8.272 119.083,8.573 118.781,8.573 118.551 C 8.573 117.822,11.249 117.228,11.645 117.869 M14.329 118.158 C 14.249 118.289,13.995 118.324,13.767 118.236 C 13.442 118.112,13.426 118.030,13.695 117.864 C 14.102 117.613,14.541 117.816,14.329 118.158 M33.525 118.553 C 33.221 119.069,32.847 119.491,32.695 119.491 C 32.251 119.491,32.370 120.110,33.087 121.522 C 33.615 122.563,33.756 123.245,33.756 124.767 C 33.757 126.014,33.876 126.769,34.092 126.908 C 34.883 127.414,36.248 127.729,36.899 127.555 C 37.773 127.321,38.365 126.455,37.792 126.249 C 36.006 125.607,35.731 123.770,37.100 121.622 C 38.217 119.868,38.240 119.666,37.370 119.270 C 37.000 119.101,36.559 118.660,36.390 118.289 C 35.882 117.176,34.249 117.326,33.525 118.553 M35.843 118.798 C 36.735 119.778,36.718 120.285,35.730 122.211 C 35.135 123.371,35.267 124.883,36.035 125.711 C 36.925 126.671,36.898 126.725,35.532 126.725 C 34.210 126.725,34.025 126.365,34.025 123.781 C 34.025 123.082,33.909 121.897,33.767 121.146 C 33.252 118.431,34.364 117.173,35.843 118.798 M24.447 119.818 C 24.116 119.978,23.845 120.198,23.845 120.307 C 23.845 120.415,23.547 120.579,23.183 120.671 C 22.013 120.964,21.547 123.120,22.104 125.656 C 22.462 127.286,27.458 128.187,29.403 126.973 C 31.028 125.958,30.981 121.597,29.337 120.732 C 29.042 120.577,28.474 120.234,28.075 119.971 C 27.266 119.436,25.402 119.357,24.447 119.818 M52.129 120.413 C 47.566 123.712,50.822 128.424,56.610 126.898 C 58.408 126.424,58.296 126.087,56.266 125.863 C 54.158 125.631,53.977 125.422,53.732 122.932 C 53.519 120.778,53.845 120.086,54.912 120.425 C 55.424 120.588,55.487 120.776,55.424 121.961 C 55.345 123.463,55.992 124.313,57.215 124.313 C 57.864 124.313,58.701 123.407,58.542 122.876 C 58.492 122.709,58.378 122.240,58.289 121.835 C 58.199 121.424,57.947 121.098,57.719 121.098 C 57.494 121.098,56.988 120.777,56.595 120.384 C 55.419 119.208,53.780 119.218,52.129 120.413 M62.085 120.027 C 61.833 120.322,61.473 120.563,61.286 120.563 C 59.862 120.563,60.130 123.376,61.592 123.770 C 63.728 124.345,64.044 125.915,62.025 125.925 C 59.525 125.938,60.296 127.377,62.834 127.437 C 66.346 127.519,68.401 124.925,65.710 123.806 C 65.303 123.636,64.686 123.003,64.339 122.398 L 63.709 121.298 64.412 120.646 C 65.307 119.817,65.098 119.491,63.674 119.491 C 62.875 119.491,62.409 119.648,62.085 120.027 M26.599 121.165 C 26.948 121.497,27.496 121.978,27.817 122.234 C 28.659 122.909,28.647 124.945,27.796 125.495 C 25.303 127.107,22.933 124.386,24.893 122.161 C 25.343 121.650,25.713 121.082,25.716 120.898 C 25.722 120.429,25.871 120.475,26.599 121.165 M47.294 120.990 C 48.290 121.240,48.668 126.591,47.689 126.591 C 47.387 126.591,47.249 126.139,47.130 124.760 C 46.977 122.978,46.163 121.683,45.169 121.644 C 45.036 121.639,45.149 121.389,45.420 121.089 C 45.692 120.789,46.083 120.609,46.291 120.688 C 46.498 120.768,46.949 120.904,47.294 120.990 M24.648 121.373 C 24.648 121.524,24.347 121.762,23.979 121.902 C 23.065 122.250,22.923 125.921,23.823 125.921 C 24.523 125.921,25.184 126.195,25.184 126.485 C 25.184 126.900,23.570 126.752,23.406 126.323 C 23.321 126.102,23.099 125.921,22.912 125.921 C 21.973 125.921,22.193 121.469,23.142 121.283 C 24.213 121.073,24.648 121.099,24.648 121.373 M29.785 122.304 C 29.887 122.894,29.847 124.129,29.694 125.050 L 29.416 126.725 28.222 126.725 C 27.494 126.725,27.093 126.620,27.194 126.457 C 27.285 126.309,27.589 126.189,27.870 126.189 C 28.903 126.189,29.384 123.198,28.543 121.997 C 28.090 121.351,28.277 121.042,29.054 121.154 C 29.457 121.212,29.646 121.509,29.785 122.304 M52.912 121.835 C 52.593 123.023,52.692 124.484,53.154 125.410 C 53.997 127.100,53.234 127.242,51.676 125.685 C 50.568 124.576,50.422 123.937,50.938 122.457 C 51.409 121.104,53.265 120.520,52.912 121.835 M62.635 122.168 L 63.514 123.227 62.816 123.402 C 61.736 123.673,60.817 123.130,60.817 122.221 C 60.817 120.745,61.439 120.727,62.635 122.168 M57.960 122.485 C 58.142 123.182,57.978 123.510,57.444 123.510 C 56.896 123.510,56.670 122.781,57.069 122.301 C 57.527 121.749,57.781 121.802,57.960 122.485 M65.737 124.567 C 66.646 124.913,66.354 126.174,65.281 126.532 C 64.421 126.818,63.729 126.621,63.880 126.132 C 63.939 125.942,64.060 125.455,64.149 125.050 C 64.321 124.265,64.666 124.160,65.737 124.567 M15.992 132.576 C 15.355 132.952,15.264 133.145,15.397 133.825 C 15.484 134.267,15.627 136.636,15.715 139.089 L 15.874 143.550 16.641 143.703 C 17.989 143.973,18.143 143.753,18.272 141.377 C 18.420 138.672,18.972 137.440,20.034 137.445 C 21.520 137.454,21.969 138.312,21.969 141.142 C 21.969 143.557,22.220 143.969,23.532 143.706 C 24.984 143.416,25.164 142.788,24.724 139.543 C 24.296 136.388,22.841 135.249,20.105 135.928 C 18.929 136.220,18.218 135.475,18.218 133.951 C 18.218 132.018,17.593 131.631,15.992 132.576 M6.095 132.804 C 5.239 133.027,5.624 133.691,6.911 134.212 C 8.328 134.786,8.573 135.591,8.573 139.673 C 8.573 143.745,8.704 144.061,10.225 143.668 L 11.119 143.437 11.253 139.486 L 11.386 135.534 12.714 134.383 C 13.992 133.275,14.020 133.221,13.468 132.926 C 12.916 132.630,7.127 132.534,6.095 132.804 M17.946 134.405 C 17.952 135.812,18.163 136.370,18.690 136.370 C 19.046 136.370,19.039 136.443,18.638 136.886 C 18.279 137.283,18.139 138.046,18.039 140.168 C 17.880 143.517,17.858 143.599,17.163 143.417 C 16.375 143.211,16.294 133.359,17.077 132.921 C 17.697 132.574,17.941 132.991,17.946 134.405 M12.860 133.160 C 12.860 133.311,12.589 133.558,12.257 133.709 C 10.759 134.393,10.322 135.668,10.228 139.626 C 10.149 142.972,10.097 143.295,9.625 143.418 C 9.134 143.547,9.108 143.369,9.094 139.761 C 9.076 135.336,8.813 134.279,7.576 133.661 C 7.101 133.424,6.789 133.152,6.884 133.058 C 7.178 132.764,12.860 132.861,12.860 133.160 M38.337 133.713 C 37.835 133.820,37.300 134.130,37.148 134.402 C 36.997 134.674,36.533 135.194,36.119 135.559 C 35.166 136.396,35.175 136.661,36.170 137.228 C 36.944 137.668,36.973 137.752,36.973 139.608 C 36.973 142.560,37.998 143.871,40.306 143.871 C 41.651 143.871,42.011 143.249,41.110 142.480 C 39.296 140.932,39.156 137.173,40.913 137.173 C 41.767 137.173,41.806 136.394,40.981 135.787 C 40.516 135.444,39.936 134.794,39.692 134.341 C 39.290 133.593,39.168 133.536,38.337 133.713 M39.292 135.182 C 39.671 135.561,40.275 135.982,40.636 136.119 C 41.340 136.387,41.253 136.906,40.504 136.906 C 39.832 136.906,38.580 138.176,38.580 138.859 C 38.579 139.816,39.996 142.477,40.672 142.787 C 41.011 142.942,41.215 143.190,41.125 143.337 C 40.864 143.758,39.440 143.647,39.059 143.176 C 38.869 142.941,38.443 142.476,38.111 142.141 C 37.607 141.632,37.508 141.240,37.508 139.737 C 37.508 137.716,37.199 136.906,36.427 136.906 C 35.740 136.906,35.745 136.205,36.433 136.025 C 36.726 135.948,37.085 135.573,37.231 135.190 C 37.573 134.289,38.396 134.286,39.292 135.182 M28.533 135.752 C 26.407 136.094,26.777 137.052,29.133 137.304 C 31.318 137.538,31.614 137.648,31.614 138.220 C 31.614 139.051,31.015 139.317,29.144 139.317 C 27.399 139.317,27.303 139.350,27.025 140.054 C 26.865 140.459,26.649 140.964,26.544 141.175 C 25.825 142.625,28.180 144.281,30.038 143.633 C 30.648 143.420,31.158 143.418,31.853 143.625 C 34.142 144.307,34.820 142.127,33.694 137.709 C 33.237 135.918,31.529 135.270,28.533 135.752 M22.934 136.461 C 23.741 137.739,23.852 143.201,23.074 143.404 C 22.614 143.525,22.561 143.310,22.438 140.823 C 22.290 137.843,22.139 137.253,21.476 137.075 C 21.231 137.009,20.670 136.864,20.228 136.753 L 19.424 136.551 20.228 136.350 C 20.869 136.190,22.813 136.269,22.934 136.461 M32.928 136.523 C 33.267 136.861,33.332 143.339,32.998 143.467 C 32.354 143.714,32.017 143.223,31.985 141.996 C 31.967 141.333,31.925 140.549,31.890 140.255 C 31.856 139.960,31.949 139.337,32.097 138.871 C 32.572 137.380,31.971 136.906,29.605 136.906 C 27.565 136.906,26.643 136.499,28.193 136.282 C 29.115 136.154,32.743 136.338,32.928 136.523 M28.318 139.797 C 28.530 139.931,28.554 140.135,28.389 140.396 C 27.813 141.306,28.093 142.254,29.075 142.723 C 30.159 143.239,29.837 143.618,28.490 143.412 C 27.584 143.273,27.338 142.820,27.331 141.281 C 27.325 139.825,27.633 139.361,28.318 139.797 M31.231 141.307 C 31.481 142.300,31.140 143.167,30.681 142.709 C 30.483 142.510,29.955 142.196,29.508 142.011 C 28.798 141.717,28.736 141.611,29.014 141.166 C 29.509 140.373,31.021 140.469,31.231 141.307 M40.738 147.868 C 40.332 148.132,40.202 157.654,40.588 158.869 C 40.878 159.782,41.972 159.545,43.203 158.301 C 44.414 157.078,44.299 157.051,45.538 158.841 C 45.936 159.416,46.488 159.546,47.265 159.248 C 47.863 159.019,47.805 158.707,46.793 156.696 C 45.913 154.950,45.906 154.908,46.386 154.285 C 46.654 153.936,46.876 153.462,46.880 153.233 C 46.883 153.003,47.062 152.581,47.279 152.295 C 48.363 150.862,46.588 150.999,45.351 152.444 C 43.858 154.187,42.867 153.048,42.867 149.592 C 42.867 148.411,42.764 147.889,42.532 147.886 C 42.348 147.884,41.956 147.823,41.661 147.749 C 41.366 147.675,40.951 147.729,40.738 147.868 M42.063 150.827 C 42.063 153.721,42.297 154.197,43.802 154.365 C 44.364 154.427,44.709 154.674,44.955 155.189 C 45.147 155.593,45.540 156.049,45.827 156.203 C 46.123 156.361,46.350 156.762,46.350 157.127 C 46.350 157.481,46.472 157.847,46.622 157.940 C 46.772 158.032,46.825 158.220,46.740 158.357 C 46.439 158.844,45.942 158.583,45.546 157.730 C 45.325 157.255,44.903 156.821,44.609 156.766 C 44.315 156.711,43.777 156.432,43.413 156.146 C 42.602 155.509,42.063 156.005,42.063 157.388 C 42.063 158.348,41.156 159.155,40.881 158.438 C 40.680 157.915,40.673 148.298,40.873 148.098 C 41.644 147.327,42.063 148.289,42.063 150.827 M6.791 149.256 C 6.350 149.697,6.277 149.971,6.451 150.529 C 6.574 150.919,6.851 152.413,7.067 153.847 C 7.625 157.546,8.616 159.514,9.980 159.627 C 11.140 159.724,12.053 158.609,12.055 157.094 C 12.056 156.493,12.384 155.862,13.195 154.900 C 14.488 153.365,14.460 153.342,14.996 156.330 C 15.534 159.326,15.722 159.678,16.781 159.678 C 18.500 159.678,19.514 158.357,19.866 155.660 C 20.029 154.407,20.403 152.574,20.698 151.586 C 21.343 149.420,21.223 148.962,20.013 148.962 C 18.828 148.962,18.551 149.556,18.413 152.392 C 18.237 156.027,17.239 156.183,16.473 152.695 C 15.406 147.835,12.153 146.982,11.649 151.429 C 11.313 154.394,11.190 154.526,9.906 153.315 C 9.433 152.869,8.987 152.051,8.775 151.239 C 8.120 148.741,7.713 148.334,6.791 149.256 M8.102 151.529 C 8.308 153.448,8.195 154.588,7.798 154.588 C 7.467 154.588,7.234 153.178,7.234 151.183 C 7.234 148.795,7.835 149.034,8.102 151.529 M14.677 150.053 C 14.757 150.478,12.897 153.237,12.525 153.244 C 12.415 153.247,12.324 152.398,12.324 151.358 L 12.324 149.467 13.461 149.549 C 14.236 149.605,14.622 149.765,14.677 150.053 M20.068 150.504 C 19.924 150.881,19.709 152.440,19.590 153.967 C 19.441 155.875,19.250 156.848,18.978 157.073 C 18.761 157.254,18.377 157.733,18.126 158.138 C 17.774 158.707,17.464 158.875,16.761 158.875 L 15.853 158.875 15.665 156.871 C 15.562 155.769,15.568 154.413,15.679 153.857 L 15.881 152.847 16.220 154.128 C 16.635 155.691,17.025 156.196,17.821 156.196 C 18.635 156.196,18.792 155.708,18.938 152.713 C 19.089 149.616,19.121 149.504,19.793 149.679 C 20.246 149.798,20.288 149.925,20.068 150.504 M24.629 151.903 C 19.701 154.508,21.949 159.932,27.680 159.267 C 29.254 159.084,29.399 159.000,30.720 157.500 C 30.843 157.360,31.148 157.100,31.396 156.921 C 34.454 154.730,28.139 150.047,24.629 151.903 M33.913 151.574 C 32.422 153.055,32.699 159.411,34.254 159.411 C 34.795 159.411,35.365 158.202,35.365 157.056 C 35.365 155.624,35.683 154.954,36.857 153.918 C 37.865 153.028,38.419 151.373,37.709 151.373 C 37.487 151.373,37.156 151.554,36.973 151.775 C 36.789 151.996,36.367 152.177,36.035 152.177 C 35.703 152.177,35.281 151.996,35.097 151.775 C 34.736 151.340,34.234 151.254,33.913 151.574 M35.968 152.863 C 36.624 153.019,37.020 153.507,36.504 153.522 C 35.559 153.550,34.959 154.624,34.829 156.515 C 34.610 159.717,33.914 159.250,33.814 155.833 C 33.734 153.089,33.968 152.314,34.800 152.560 C 35.037 152.630,35.563 152.766,35.968 152.863 M28.324 154.052 C 28.812 154.653,28.748 156.734,28.224 157.313 C 27.113 158.541,25.101 157.715,24.849 155.928 C 24.470 153.236,26.688 152.038,28.324 154.052 M30.007 153.599 C 30.007 153.756,30.248 154.141,30.544 154.456 L 31.081 155.028 30.411 156.348 C 30.043 157.075,29.741 157.813,29.740 157.988 C 29.738 158.470,29.247 158.676,28.532 158.496 L 27.891 158.336 28.547 157.680 C 29.269 156.958,29.406 155.693,28.938 154.064 C 28.745 153.389,28.761 153.088,28.996 152.943 C 29.351 152.723,30.007 153.149,30.007 153.599 M46.350 153.099 C 46.350 153.311,46.237 153.554,46.100 153.639 C 45.782 153.836,45.461 153.334,45.680 152.981 C 45.926 152.582,46.350 152.657,46.350 153.099 M24.915 153.182 C 24.914 153.292,24.694 153.743,24.427 154.184 C 24.083 154.750,24.003 155.183,24.153 155.657 C 24.270 156.027,24.429 156.653,24.507 157.048 C 24.591 157.472,24.887 157.843,25.228 157.951 C 25.748 158.116,25.761 158.161,25.353 158.389 C 24.650 158.783,24.018 158.537,23.845 157.802 C 23.746 157.380,23.470 157.102,23.097 157.048 C 22.275 156.929,22.201 154.453,23.012 154.195 C 23.291 154.107,23.581 153.797,23.657 153.508 C 23.786 153.013,24.918 152.720,24.915 153.182 M10.423 155.899 C 11.594 156.800,11.401 158.717,10.128 158.823 C 9.171 158.903,9.128 158.868,8.836 157.782 C 8.269 155.677,9.002 154.807,10.423 155.899 " stroke="none" fill="#fce0c2" fill-rule="evenodd"></path><path id="path4" d="M17.238 115.520 C 16.436 115.908,15.987 117.780,16.334 119.285 C 16.674 120.760,16.685 124.460,16.353 125.620 C 15.919 127.130,16.667 128.220,18.407 128.612 C 19.573 128.875,20.260 128.281,20.493 126.807 C 20.880 124.354,21.048 124.051,21.263 125.421 C 21.480 126.811,21.788 127.157,23.709 128.166 C 25.770 129.248,30.543 128.333,30.543 126.856 C 30.543 126.694,30.844 126.152,31.212 125.653 C 31.641 125.072,31.882 124.390,31.882 123.758 C 31.882 123.216,32.055 122.628,32.265 122.454 C 32.866 121.955,33.222 122.922,33.222 125.048 C 33.222 127.074,33.396 127.419,34.861 128.291 C 36.701 129.387,39.116 128.802,39.116 127.261 C 39.116 126.966,39.236 126.725,39.384 126.725 C 39.531 126.725,39.652 126.966,39.652 127.261 C 39.652 130.119,43.369 128.723,43.434 125.839 C 43.525 121.853,45.278 121.462,45.278 125.428 C 45.278 127.407,46.356 128.868,47.816 128.868 C 48.648 128.868,49.295 127.515,49.340 125.684 L 49.384 123.912 49.541 125.358 C 49.638 126.247,49.853 126.883,50.100 127.008 C 54.836 129.413,57.563 129.422,59.009 127.040 L 59.441 126.327 59.746 127.128 C 60.446 128.969,63.431 129.640,65.104 128.332 C 65.472 128.044,65.906 127.806,66.067 127.802 C 67.253 127.778,67.720 124.717,66.703 123.634 C 66.252 123.154,66.206 122.929,66.435 122.327 C 67.351 119.917,66.425 118.687,63.696 118.687 C 61.291 118.687,59.743 120.100,59.750 122.288 C 59.754 123.890,59.905 124.172,60.884 124.411 C 61.851 124.648,61.821 125.031,60.819 125.251 C 60.378 125.348,59.904 125.628,59.767 125.873 C 59.295 126.717,59.076 125.870,59.156 123.509 L 59.237 121.143 58.069 120.340 C 57.427 119.898,56.743 119.345,56.549 119.112 C 55.232 117.525,50.827 119.359,49.830 121.910 L 49.404 122.998 49.043 121.587 C 48.504 119.487,47.472 118.687,45.301 118.687 C 43.781 118.687,43.403 118.357,43.403 117.033 C 43.403 116.184,43.276 115.956,42.612 115.613 C 40.640 114.593,39.395 115.437,39.363 117.816 C 39.351 118.664,39.281 119.206,39.206 119.022 C 39.132 118.838,38.731 118.687,38.316 118.687 C 37.737 118.687,37.432 118.468,37.008 117.749 C 36.101 116.212,33.622 116.467,33.087 118.153 C 32.994 118.447,32.814 118.687,32.687 118.687 C 32.251 118.687,31.614 119.530,31.610 120.113 C 31.603 121.188,31.153 121.585,30.689 120.926 C 29.199 118.812,23.309 117.696,23.309 119.527 C 23.309 119.647,22.952 119.930,22.515 120.156 C 21.952 120.447,21.637 120.879,21.431 121.644 C 20.945 123.448,20.630 122.566,20.630 119.401 C 20.630 115.363,19.718 114.320,17.238 115.520 M10.176 116.148 C 9.990 116.372,9.320 116.686,8.686 116.845 C 6.170 117.479,4.373 121.639,5.591 124.009 C 5.866 124.545,6.257 125.345,6.460 125.787 C 6.964 126.887,7.670 127.481,8.852 127.799 C 9.401 127.947,10.000 128.248,10.182 128.468 C 10.995 129.447,14.812 128.943,15.415 127.777 C 16.278 126.109,15.656 125.416,13.262 125.375 C 10.386 125.326,8.610 122.891,10.055 120.980 C 10.272 120.694,10.449 120.253,10.449 119.999 C 10.449 119.464,11.734 119.178,13.702 119.275 C 15.819 119.380,16.455 118.159,15.113 116.564 C 14.297 115.594,10.876 115.305,10.176 116.148 M20.054 121.256 C 20.175 127.324,19.862 128.213,17.992 127.108 L 17.281 126.688 17.310 121.951 C 17.347 115.861,17.270 116.331,18.285 116.052 C 19.835 115.625,19.948 115.957,20.054 121.256 M41.819 116.084 C 42.094 116.293,42.300 117.015,42.399 118.106 C 42.590 120.219,42.531 120.171,44.450 119.764 C 46.189 119.395,47.582 119.897,48.242 121.130 C 48.853 122.272,48.884 126.078,48.290 127.016 L 47.742 127.881 47.046 127.130 C 46.526 126.569,46.350 126.094,46.350 125.253 C 46.350 121.001,42.791 120.830,42.407 125.063 C 42.296 126.290,42.107 126.841,41.654 127.267 L 41.049 127.836 40.618 127.220 C 39.945 126.259,39.978 116.425,40.656 116.029 C 41.248 115.685,41.302 115.687,41.819 116.084 M14.705 117.492 C 15.497 118.238,14.865 118.640,12.945 118.611 C 11.077 118.584,9.645 119.135,9.645 119.882 C 9.645 120.063,9.404 120.430,9.109 120.697 C 8.002 121.698,8.451 123.437,10.329 125.420 C 10.810 125.928,12.468 126.248,13.569 126.046 C 14.760 125.828,15.200 126.251,14.652 127.086 C 14.263 127.680,14.108 127.733,13.367 127.520 C 12.821 127.364,12.335 127.379,11.990 127.564 C 9.715 128.782,5.583 124.548,6.279 121.712 C 6.380 121.301,6.527 120.644,6.607 120.253 C 7.127 117.691,12.847 115.742,14.705 117.492 M36.390 118.289 C 36.559 118.660,37.000 119.101,37.370 119.270 C 38.240 119.666,38.217 119.868,37.100 121.622 C 35.731 123.770,36.006 125.607,37.792 126.249 C 38.365 126.455,37.773 127.321,36.899 127.555 C 36.248 127.729,34.883 127.414,34.092 126.908 C 33.876 126.769,33.757 126.014,33.756 124.767 C 33.756 123.245,33.615 122.563,33.087 121.522 C 32.370 120.110,32.251 119.491,32.695 119.491 C 32.847 119.491,33.221 119.069,33.525 118.553 C 34.249 117.326,35.882 117.176,36.390 118.289 M28.075 119.971 C 28.474 120.234,29.042 120.577,29.337 120.732 C 30.981 121.597,31.028 125.958,29.403 126.973 C 28.445 127.571,24.454 127.577,23.286 126.981 C 21.377 126.007,21.298 121.144,23.183 120.671 C 23.547 120.579,23.845 120.415,23.845 120.307 C 23.845 119.496,26.980 119.247,28.075 119.971 M56.595 120.384 C 56.988 120.777,57.494 121.098,57.719 121.098 C 57.947 121.098,58.199 121.424,58.289 121.835 C 58.378 122.240,58.492 122.709,58.542 122.876 C 58.701 123.407,57.864 124.313,57.215 124.313 C 55.992 124.313,55.345 123.463,55.424 121.961 C 55.487 120.776,55.424 120.588,54.912 120.425 C 53.845 120.086,53.519 120.778,53.732 122.932 C 53.977 125.422,54.158 125.631,56.266 125.863 C 58.296 126.087,58.408 126.424,56.610 126.898 C 53.549 127.705,51.429 127.178,50.498 125.377 C 48.712 121.922,53.892 117.680,56.595 120.384 M64.960 119.743 C 65.045 119.881,64.799 120.288,64.412 120.646 L 63.709 121.298 64.339 122.398 C 64.686 123.003,65.303 123.636,65.710 123.806 C 68.401 124.925,66.346 127.519,62.834 127.437 C 60.296 127.377,59.525 125.938,62.025 125.925 C 64.044 125.915,63.728 124.345,61.592 123.770 C 60.130 123.376,59.862 120.563,61.286 120.563 C 61.473 120.563,61.833 120.322,62.085 120.027 C 62.572 119.458,64.656 119.252,64.960 119.743 M25.716 120.898 C 25.713 121.082,25.343 121.650,24.893 122.161 C 22.933 124.386,25.303 127.107,27.796 125.495 C 28.647 124.945,28.659 122.909,27.817 122.234 C 27.496 121.978,26.948 121.497,26.599 121.165 C 25.871 120.475,25.722 120.429,25.716 120.898 M39.380 123.845 C 39.377 125.060,39.287 125.915,39.178 125.744 C 39.069 125.573,38.619 125.392,38.177 125.342 C 36.671 125.171,36.956 122.170,38.479 122.170 C 38.829 122.170,39.116 122.050,39.116 121.902 C 39.116 121.755,39.176 121.634,39.250 121.634 C 39.324 121.634,39.382 122.629,39.380 123.845 M27.127 122.811 C 27.837 123.350,27.720 124.488,26.899 125.026 C 25.997 125.616,25.349 125.244,25.233 124.068 C 25.091 122.638,26.056 121.998,27.127 122.811 M16.343 130.933 C 16.122 131.013,15.675 131.321,15.351 131.616 C 14.805 132.113,14.427 132.149,10.298 132.103 C 6.418 132.059,5.770 132.113,5.329 132.511 C 4.314 133.430,5.085 135.174,6.632 135.459 C 8.011 135.712,8.029 135.767,8.033 139.878 C 8.038 143.986,8.216 144.407,9.941 144.407 C 11.864 144.407,12.056 144.014,12.056 140.088 C 12.056 136.227,12.192 135.758,13.439 135.323 C 14.656 134.899,14.727 135.125,14.731 139.471 C 14.736 143.886,14.986 144.407,17.103 144.407 C 18.449 144.407,18.640 144.088,18.892 141.410 C 19.067 139.560,19.244 139.252,20.328 138.919 C 21.226 138.643,21.424 139.105,21.429 141.486 C 21.434 143.811,21.811 144.407,23.276 144.407 C 24.226 144.407,25.612 143.793,25.777 143.300 C 25.840 143.108,26.154 143.258,26.579 143.684 C 27.415 144.519,33.161 144.730,34.615 143.977 L 35.342 143.601 35.183 140.986 C 35.049 138.789,35.092 138.315,35.451 138.017 C 36.163 137.426,36.437 137.921,36.438 139.801 C 36.441 143.437,37.196 144.407,40.021 144.407 C 41.585 144.407,42.331 143.975,42.331 143.068 C 42.331 142.561,41.669 141.728,41.266 141.728 C 40.372 141.728,40.191 138.064,41.069 137.731 C 42.355 137.242,42.688 135.535,41.567 135.175 C 41.324 135.097,40.824 134.460,40.455 133.759 C 39.382 131.718,36.910 132.113,36.276 134.427 C 36.185 134.759,35.941 135.030,35.734 135.030 C 35.527 135.030,35.133 135.399,34.859 135.849 L 34.361 136.669 33.813 135.916 C 33.171 135.035,27.922 134.740,26.967 135.532 C 25.959 136.368,26.589 137.614,28.200 137.969 L 29.069 138.160 27.951 138.476 C 27.120 138.710,26.741 138.996,26.479 139.590 C 26.010 140.649,25.780 140.597,25.573 139.384 C 24.947 135.716,24.371 135.164,21.165 135.164 L 18.888 135.163 18.748 133.556 C 18.529 131.058,17.894 130.365,16.343 130.933 M18.056 132.507 C 18.145 132.740,18.218 133.390,18.218 133.951 C 18.218 135.475,18.929 136.220,20.105 135.928 C 22.841 135.249,24.296 136.388,24.724 139.543 C 25.164 142.788,24.984 143.416,23.532 143.706 C 22.220 143.969,21.969 143.557,21.969 141.142 C 21.969 138.312,21.520 137.454,20.034 137.445 C 18.972 137.440,18.420 138.672,18.272 141.377 C 18.143 143.753,17.989 143.973,16.641 143.703 L 15.874 143.550 15.715 139.089 C 15.627 136.636,15.484 134.267,15.397 133.825 C 15.156 132.595,17.621 131.373,18.056 132.507 M13.468 132.926 C 14.020 133.221,13.992 133.275,12.714 134.383 L 11.386 135.534 11.253 139.486 L 11.119 143.437 10.225 143.668 C 8.704 144.061,8.573 143.745,8.573 139.673 C 8.573 135.591,8.328 134.786,6.911 134.212 C 5.624 133.691,5.239 133.027,6.095 132.804 C 7.127 132.534,12.916 132.630,13.468 132.926 M40.981 135.787 C 41.806 136.394,41.767 137.173,40.913 137.173 C 39.156 137.173,39.296 140.932,41.110 142.480 C 42.011 143.249,41.651 143.871,40.306 143.871 C 37.998 143.871,36.973 142.560,36.973 139.608 C 36.973 137.752,36.944 137.668,36.170 137.228 C 35.175 136.661,35.166 136.396,36.119 135.559 C 36.533 135.194,36.997 134.674,37.148 134.402 C 37.688 133.435,39.186 133.400,39.692 134.341 C 39.936 134.794,40.516 135.444,40.981 135.787 M33.081 136.195 C 33.570 136.689,33.993 138.739,34.104 141.148 C 34.224 143.746,33.806 144.206,31.853 143.625 C 31.158 143.418,30.648 143.420,30.038 143.633 C 28.180 144.281,25.825 142.625,26.544 141.175 C 26.649 140.964,26.865 140.459,27.025 140.054 C 27.303 139.350,27.399 139.317,29.144 139.317 C 31.015 139.317,31.614 139.051,31.614 138.220 C 31.614 137.648,31.318 137.538,29.133 137.304 C 26.777 137.052,26.407 136.094,28.533 135.752 C 29.754 135.556,32.737 135.846,33.081 136.195 M29.014 141.166 C 28.736 141.611,28.798 141.717,29.508 142.011 C 29.955 142.196,30.483 142.510,30.681 142.709 C 31.140 143.167,31.481 142.300,31.231 141.307 C 31.021 140.469,29.509 140.373,29.014 141.166 M40.130 147.689 C 39.633 148.559,39.727 158.807,40.242 159.863 C 40.805 161.018,42.424 160.889,43.538 159.600 L 44.354 158.656 45.233 159.703 C 46.164 160.812,47.707 161.161,48.439 160.429 C 49.063 159.805,48.834 157.901,48.068 157.343 C 46.753 156.385,46.861 154.110,48.292 152.654 C 49.376 151.551,48.682 150.569,46.819 150.569 C 45.658 150.569,45.473 150.654,45.065 151.371 C 44.387 152.562,44.088 152.221,43.938 150.085 C 43.769 147.657,43.338 147.086,41.673 147.086 C 40.711 147.086,40.406 147.205,40.130 147.689 M6.441 147.704 C 5.201 148.132,4.840 149.557,5.592 151.052 C 5.866 151.597,6.239 153.248,6.420 154.722 C 6.945 158.986,7.999 160.750,10.020 160.750 C 11.161 160.750,12.321 160.038,12.327 159.333 C 12.328 159.155,12.748 158.482,13.259 157.839 L 14.189 156.669 14.462 157.388 C 14.613 157.783,14.735 158.383,14.735 158.722 C 14.735 159.864,15.712 160.750,16.971 160.750 C 19.236 160.750,20.620 158.746,20.634 155.446 C 20.639 154.157,21.024 153.490,21.259 154.364 C 21.351 154.708,21.428 155.448,21.430 156.008 C 21.436 157.719,22.507 159.199,24.013 159.577 C 24.405 159.676,24.950 159.980,25.223 160.253 C 25.861 160.892,27.170 160.888,28.234 160.245 C 28.693 159.967,29.365 159.650,29.726 159.540 C 30.088 159.430,30.547 159.176,30.747 158.977 C 31.053 158.671,31.334 158.783,32.525 159.682 C 34.662 161.295,35.629 160.795,36.028 157.870 C 36.133 157.097,36.328 156.397,36.462 156.314 C 36.595 156.231,36.705 155.951,36.705 155.691 C 36.705 155.230,37.742 154.052,38.148 154.052 C 38.657 154.052,39.116 153.194,39.116 152.241 C 39.116 150.999,38.305 150.383,37.059 150.679 C 36.179 150.888,36.082 150.888,34.798 150.678 C 33.747 150.506,32.238 151.099,31.974 151.789 C 31.727 152.431,30.723 152.228,29.916 151.373 C 28.737 150.124,24.858 150.145,23.624 151.408 C 22.404 152.656,21.969 152.332,21.969 150.176 C 21.969 146.351,18.521 146.539,18.075 150.388 C 17.798 152.779,17.539 153.374,17.298 152.177 C 16.826 149.834,16.331 148.827,15.290 148.091 C 13.338 146.711,12.252 147.103,11.250 149.552 L 10.844 150.543 9.976 149.994 C 9.499 149.692,9.109 149.292,9.109 149.106 C 9.109 148.757,7.825 147.343,7.532 147.369 C 7.442 147.378,6.951 147.528,6.441 147.704 M42.532 147.886 C 42.764 147.889,42.867 148.411,42.867 149.592 C 42.867 153.048,43.858 154.187,45.351 152.444 C 46.588 150.999,48.363 150.862,47.279 152.295 C 47.062 152.581,46.883 153.003,46.880 153.233 C 46.876 153.462,46.654 153.936,46.386 154.285 C 45.906 154.908,45.913 154.950,46.793 156.696 C 47.805 158.707,47.863 159.019,47.265 159.248 C 46.488 159.546,45.936 159.416,45.538 158.841 C 44.299 157.051,44.414 157.078,43.203 158.301 C 40.783 160.746,40.427 160.105,40.384 153.224 C 40.350 147.785,40.430 147.442,41.661 147.749 C 41.956 147.823,42.348 147.884,42.532 147.886 M8.087 149.297 C 8.272 149.628,8.582 150.502,8.775 151.239 C 8.987 152.051,9.433 152.869,9.906 153.315 C 11.190 154.526,11.313 154.394,11.649 151.429 C 12.153 146.982,15.406 147.835,16.473 152.695 C 17.239 156.183,18.237 156.027,18.413 152.392 C 18.551 149.556,18.828 148.962,20.013 148.962 C 21.223 148.962,21.343 149.420,20.698 151.586 C 20.403 152.574,20.029 154.407,19.866 155.660 C 19.514 158.357,18.500 159.678,16.781 159.678 C 15.722 159.678,15.534 159.326,14.996 156.330 C 14.460 153.342,14.488 153.365,13.195 154.900 C 12.384 155.862,12.056 156.493,12.055 157.094 C 12.053 158.609,11.140 159.724,9.980 159.627 C 8.616 159.514,7.625 157.546,7.067 153.847 C 6.851 152.413,6.574 150.919,6.451 150.529 C 6.057 149.270,7.476 148.201,8.087 149.297 M28.701 151.763 C 31.484 152.965,32.964 155.798,31.396 156.921 C 31.148 157.100,30.843 157.360,30.720 157.500 C 29.399 159.000,29.254 159.084,27.680 159.267 C 24.343 159.654,21.969 158.012,21.969 155.317 C 21.969 152.586,25.856 150.534,28.701 151.763 M35.097 151.775 C 35.281 151.996,35.703 152.177,36.035 152.177 C 36.367 152.177,36.789 151.996,36.973 151.775 C 37.156 151.554,37.487 151.373,37.709 151.373 C 38.419 151.373,37.865 153.028,36.857 153.918 C 35.683 154.954,35.365 155.624,35.365 157.056 C 35.365 158.202,34.795 159.411,34.254 159.411 C 33.418 159.411,32.972 158.194,32.963 155.893 C 32.949 152.408,33.977 150.425,35.097 151.775 M25.612 153.291 C 24.052 155.113,24.755 157.803,26.792 157.803 C 28.110 157.803,28.669 157.155,28.659 155.639 C 28.645 153.740,26.586 152.153,25.612 153.291 M27.543 154.455 C 28.079 154.610,28.149 154.780,28.079 155.749 L 27.997 156.865 26.792 156.865 C 25.588 156.865,25.586 156.864,25.502 155.842 C 25.408 154.705,25.837 153.978,26.495 154.159 C 26.732 154.224,27.203 154.358,27.543 154.455 " stroke="none" fill="#fcc391" fill-rule="evenodd"></path></g></svg>